<svg width="40" height="40" viewBox="0 0 40 40" fill="none" xmlns="http://www.w3.org/2000/svg">
<rect width="40" height="40" rx="20" fill="#E6E9F0"/>
<rect x="10" y="10" width="20" height="20" rx="10" fill="#E6E9F0"/>
<path d="M20.8333 14.1668C20.8333 13.7066 20.4602 13.3335 20 13.3335C19.5398 13.3335 19.1667 13.7066 19.1667 14.1668V19.1668H14.1667C13.7064 19.1668 13.3333 19.5399 13.3333 20.0002C13.3333 20.4604 13.7064 20.8335 14.1667 20.8335H19.1667V25.8335C19.1667 26.2937 19.5398 26.6668 20 26.6668C20.4602 26.6668 20.8333 26.2937 20.8333 25.8335V20.8335H25.8333C26.2936 20.8335 26.6667 20.4604 26.6667 20.0002C26.6667 19.5399 26.2936 19.1668 25.8333 19.1668H20.8333V14.1668Z" fill="#323B50"/>
</svg>
