<svg width="24" height="24" viewBox="0 0 24 24" fill="none" xmlns="http://www.w3.org/2000/svg">
<path fill-rule="evenodd" clip-rule="evenodd" d="M17.9705 4.18243C16.9942 3.20612 15.4113 3.20612 14.435 4.18243L5.41936 13.198C3.75963 14.8578 3.75963 17.5487 5.41936 19.2084C7.07908 20.8682 9.77004 20.8682 11.4298 19.2084L20.4454 10.1928C20.8359 9.80231 21.4691 9.80231 21.8596 10.1928C22.2501 10.5834 22.2501 11.2165 21.8596 11.607L12.844 20.6227C10.4032 23.0634 6.44592 23.0634 4.00514 20.6227C1.56437 18.1819 1.56437 14.2246 4.00514 11.7838L13.0208 2.76821C14.7781 1.01086 17.6274 1.01086 19.3847 2.76821C21.1421 4.52557 21.1421 7.37482 19.3847 9.13218L10.7227 17.7942C9.64872 18.8682 7.90751 18.8682 6.83357 17.7942C5.75963 16.7203 5.75963 14.9791 6.83357 13.9051L14.435 6.30375C14.8255 5.91322 15.4587 5.91322 15.8492 6.30375C16.2397 6.69427 16.2397 7.32744 15.8492 7.71796L8.24778 15.3194C7.95489 15.6123 7.95489 16.0871 8.24778 16.38C8.54068 16.6729 9.01555 16.6729 9.30844 16.38L17.9705 7.71796C18.9468 6.74165 18.9468 5.15874 17.9705 4.18243Z" fill="#9CA6C1"/>
</svg>
