<svg width="22" height="28" viewBox="0 0 22 28" fill="none" xmlns="http://www.w3.org/2000/svg">
<path fill-rule="evenodd" clip-rule="evenodd" d="M8.01164 0.666627H13.9884C15.0617 0.66661 15.9475 0.666596 16.6691 0.725552C17.4186 0.786786 18.1075 0.918205 18.7547 1.24793C19.7582 1.75925 20.5741 2.57515 21.0854 3.57868C21.4151 4.22579 21.5466 4.91473 21.6078 5.66419C21.6667 6.38579 21.6667 7.27162 21.6667 8.34493V26C21.6667 26.4753 21.4137 26.9146 21.0026 27.1532C20.5915 27.3917 20.0845 27.3934 19.6719 27.1576L11 22.2023L2.32823 27.1576C1.91556 27.3934 1.40856 27.3917 0.997473 27.1532C0.586386 26.9146 0.333375 26.4753 0.333375 26L0.333375 8.34489C0.333358 7.2716 0.333344 6.38579 0.3923 5.66419C0.453534 4.91473 0.584953 4.22579 0.914674 3.57868C1.426 2.57515 2.24189 1.75925 3.24543 1.24793C3.89254 0.918205 4.58148 0.786786 5.33094 0.725552C6.05253 0.666596 6.93835 0.66661 8.01164 0.666627Z" fill="white"/>
</svg>
