<svg width="18" height="20" viewBox="0 0 18 20" fill="none" xmlns="http://www.w3.org/2000/svg">
<path fill-rule="evenodd" clip-rule="evenodd" d="M13.167 1.66659C13.167 1.20635 12.7939 0.833252 12.3337 0.833252C11.8734 0.833252 11.5003 1.20635 11.5003 1.66659V2.49992H6.50033V1.66659C6.50033 1.20635 6.12723 0.833252 5.66699 0.833252C5.20676 0.833252 4.83366 1.20635 4.83366 1.66659V2.50127C4.43744 2.504 4.09115 2.51218 3.79047 2.53675C3.32206 2.57502 2.89147 2.65716 2.48703 2.86323C1.85982 3.18281 1.34988 3.69274 1.03031 4.31995C0.82423 4.7244 0.742093 5.15498 0.703822 5.6234C0.666974 6.07439 0.666983 6.62803 0.666993 7.29882V14.3677C0.666983 15.0385 0.666974 15.5921 0.703822 16.0431C0.742093 16.5115 0.824229 16.9421 1.03031 17.3466C1.34988 17.9738 1.85982 18.4837 2.48703 18.8033C2.89147 19.0093 3.32206 19.0915 3.79047 19.1298C4.24146 19.1666 4.79509 19.1666 5.46589 19.1666H12.5348C13.2056 19.1666 13.7592 19.1666 14.2102 19.1298C14.6786 19.0915 15.1092 19.0093 15.5136 18.8033C16.1408 18.4837 16.6508 17.9738 16.9703 17.3466C17.1764 16.9421 17.2586 16.5115 17.2968 16.0431C17.3337 15.5921 17.3337 15.0385 17.3337 14.3677V7.29882C17.3337 6.62802 17.3337 6.07439 17.2968 5.6234C17.2586 5.15498 17.1764 4.7244 16.9703 4.31995C16.6508 3.69274 16.1408 3.18281 15.5136 2.86323C15.1092 2.65716 14.6786 2.57502 14.2102 2.53675C13.9095 2.51218 13.5632 2.504 13.167 2.50127V1.66659ZM4.83366 4.99992V4.16805C4.46239 4.17066 4.17085 4.17789 3.92619 4.19788C3.56085 4.22773 3.37401 4.28183 3.24368 4.34824C2.93007 4.50803 2.67511 4.763 2.51532 5.0766C2.44891 5.20693 2.3948 5.39377 2.36495 5.75912C2.33431 6.13419 2.33366 6.61944 2.33366 7.33325V7.49992H15.667V7.33325C15.667 6.61944 15.6663 6.13419 15.6357 5.75912C15.6058 5.39377 15.5517 5.20693 15.4853 5.0766C15.3255 4.763 15.0706 4.50803 14.757 4.34824C14.6266 4.28183 14.4398 4.22773 14.0745 4.19788C13.8298 4.17789 13.5383 4.17066 13.167 4.16805V4.99992C13.167 5.46016 12.7939 5.83325 12.3337 5.83325C11.8734 5.83325 11.5003 5.46016 11.5003 4.99992V4.16659H6.50033V4.99992C6.50033 5.46016 6.12723 5.83325 5.66699 5.83325C5.20676 5.83325 4.83366 5.46016 4.83366 4.99992ZM12.5062 11.8392C12.8317 11.5137 12.8317 10.9861 12.5062 10.6607C12.1808 10.3352 11.6532 10.3352 11.3277 10.6607L8.16699 13.8214L7.08958 12.744C6.76414 12.4186 6.23651 12.4186 5.91107 12.744C5.58563 13.0694 5.58563 13.5971 5.91107 13.9225L7.57774 15.5892C7.90317 15.9146 8.43081 15.9146 8.75625 15.5892L12.5062 11.8392Z" fill="#007AFF"/>
</svg>
