<svg width="21" height="20" viewBox="0 0 21 20" fill="none" xmlns="http://www.w3.org/2000/svg">
<path d="M2.29166 6.98037C2.29166 6.68844 2.29166 6.54247 2.30384 6.41952C2.42132 5.23374 3.35938 4.29568 4.54517 4.1782C4.66811 4.16602 4.82195 4.16602 5.12964 4.16602C5.2482 4.16602 5.30748 4.16602 5.35781 4.16297C6.0005 4.12404 6.56328 3.71841 6.80344 3.12101C6.82225 3.07423 6.83983 3.02149 6.87499 2.91602C6.91015 2.81054 6.92773 2.7578 6.94654 2.71102C7.1867 2.11362 7.74948 1.70799 8.39217 1.66906C8.4425 1.66602 8.49809 1.66602 8.60927 1.66602H12.6407C12.7519 1.66602 12.8075 1.66602 12.8578 1.66906C13.5005 1.70799 14.0633 2.11362 14.3034 2.71102C14.3223 2.7578 14.3398 2.81054 14.375 2.91602C14.4101 3.02149 14.4277 3.07423 14.4465 3.12101C14.6867 3.71841 15.2495 4.12404 15.8922 4.16297C15.9425 4.16602 16.0018 4.16602 16.1203 4.16602C16.428 4.16602 16.5819 4.16602 16.7048 4.1782C17.8906 4.29568 18.8287 5.23374 18.9461 6.41952C18.9583 6.54247 18.9583 6.68844 18.9583 6.98037V13.4993C18.9583 14.8995 18.9583 15.5995 18.6858 16.1343C18.4462 16.6047 18.0637 16.9872 17.5933 17.2269C17.0585 17.4993 16.3585 17.4993 14.9583 17.4993H6.29166C4.89153 17.4993 4.19146 17.4993 3.65668 17.2269C3.18628 16.9872 2.80382 16.6047 2.56414 16.1343C2.29166 15.5995 2.29166 14.8995 2.29166 13.4993V6.98037Z" stroke="#323B50" stroke-width="1.5" stroke-linecap="round" stroke-linejoin="round"/>
<path d="M10.625 13.7493C12.4659 13.7493 13.9583 12.257 13.9583 10.416C13.9583 8.57507 12.4659 7.08268 10.625 7.08268C8.78404 7.08268 7.29166 8.57507 7.29166 10.416C7.29166 12.257 8.78404 13.7493 10.625 13.7493Z" stroke="#323B50" stroke-width="1.5" stroke-linecap="round" stroke-linejoin="round"/>
</svg>
