<svg width="60" height="60" viewBox="0 0 60 60" fill="none" xmlns="http://www.w3.org/2000/svg">
<g id="Media / Icon / Outline / camera-02">
<g id="Icon">
<path d="M5 19.2544C5 15.5241 8.02407 12.5 11.7544 12.5C13.6927 12.5 15.4134 11.2597 16.0263 9.421L16.25 8.75C16.3555 8.43357 16.4082 8.27536 16.4646 8.135C17.1851 6.34281 18.8735 5.12591 20.8015 5.00914C20.9525 5 21.1193 5 21.4528 5H38.5472C38.8807 5 39.0475 5 39.1985 5.00914C41.1265 5.12591 42.8149 6.34281 43.5354 8.135C43.5918 8.27536 43.6445 8.43357 43.75 8.75L43.9737 9.421C44.5866 11.2597 46.3073 12.5 48.2456 12.5C51.9759 12.5 55 15.5241 55 19.2544V40.5C55 44.7004 55 46.8006 54.1825 48.4049C53.4635 49.8161 52.3161 50.9635 50.9049 51.6825C49.3006 52.5 47.2004 52.5 43 52.5H17C12.7996 52.5 10.6994 52.5 9.09507 51.6825C7.68386 50.9635 6.5365 49.8161 5.81745 48.4049C5 46.8006 5 44.7004 5 40.5V19.2544Z" stroke="#546286" stroke-width="2" stroke-linecap="round" stroke-linejoin="round"/>
<path d="M30 41.25C36.2132 41.25 41.25 36.2132 41.25 30C41.25 23.7868 36.2132 18.75 30 18.75C23.7868 18.75 18.75 23.7868 18.75 30C18.75 36.2132 23.7868 41.25 30 41.25Z" stroke="#546286" stroke-width="2" stroke-linecap="round" stroke-linejoin="round"/>
</g>
</g>
</svg>
