<svg width="32" height="33" viewBox="0 0 32 33" fill="none" xmlns="http://www.w3.org/2000/svg">
<path fill-rule="evenodd" clip-rule="evenodd" d="M15.9987 1.83337C7.89852 1.83337 1.33203 8.39986 1.33203 16.5C1.33203 24.6002 7.89852 31.1667 15.9987 31.1667C24.0989 31.1667 30.6654 24.6002 30.6654 16.5C30.6654 8.39986 24.0989 1.83337 15.9987 1.83337ZM22.9415 13.4428C23.4622 12.9222 23.4622 12.0779 22.9415 11.5572C22.4208 11.0365 21.5766 11.0365 21.0559 11.5572L13.9987 18.6144L10.9415 15.5572C10.4208 15.0365 9.57659 15.0365 9.05589 15.5572C8.53519 16.0779 8.53519 16.9221 9.05589 17.4429L13.0559 21.4428C13.5766 21.9635 14.4208 21.9635 14.9415 21.4428L22.9415 13.4428Z" fill="#007AFF"/>
</svg>
