<svg width="18" height="20" viewBox="0 0 18 20" fill="none" xmlns="http://www.w3.org/2000/svg">
<path d="M5.66667 6.66699L2.41121 10.5735C2.12054 10.9223 1.9752 11.0967 1.97298 11.244C1.97105 11.3721 2.02811 11.4939 2.12771 11.5744C2.24229 11.667 2.46931 11.667 2.92336 11.667H9L8.16667 18.3337L12.3333 13.3337M12.0417 8.33366H15.0766C15.5307 8.33366 15.7577 8.33366 15.8723 8.42625C15.9719 8.50674 16.0289 8.62856 16.027 8.75661C16.0248 8.9039 15.8795 9.07831 15.5888 9.42712L14.4585 10.7834M7.81063 4.0942L9.8333 1.66699L9.33354 5.66509M16.5 17.5003L1.5 2.50033" stroke="#F59E0B" stroke-width="2" stroke-linecap="round" stroke-linejoin="round"/>
</svg>
