<svg width="16" height="20" viewBox="0 0 16 20" fill="none" xmlns="http://www.w3.org/2000/svg">
<path d="M11.3333 3.33317C12.1082 3.33317 12.4957 3.33317 12.8136 3.41836C13.6764 3.64952 14.3502 4.32339 14.5814 5.18612C14.6666 5.50404 14.6666 5.89153 14.6666 6.6665V14.3332C14.6666 15.7333 14.6666 16.4334 14.3941 16.9681C14.1544 17.4386 13.772 17.821 13.3016 18.0607C12.7668 18.3332 12.0667 18.3332 10.6666 18.3332H5.33325C3.93312 18.3332 3.23305 18.3332 2.69828 18.0607C2.22787 17.821 1.84542 17.4386 1.60574 16.9681C1.33325 16.4334 1.33325 15.7333 1.33325 14.3332V6.6665C1.33325 5.89153 1.33325 5.50404 1.41844 5.18612C1.64961 4.32339 2.32347 3.64952 3.1862 3.41836C3.50412 3.33317 3.89161 3.33317 4.66659 3.33317M5.99992 4.99984H9.99992C10.4666 4.99984 10.7 4.99984 10.8782 4.90901C11.035 4.82912 11.1625 4.70163 11.2424 4.54483C11.3333 4.36657 11.3333 4.13321 11.3333 3.6665V2.99984C11.3333 2.53313 11.3333 2.29977 11.2424 2.12151C11.1625 1.96471 11.035 1.83723 10.8782 1.75733C10.7 1.6665 10.4666 1.6665 9.99992 1.6665H5.99992C5.53321 1.6665 5.29985 1.6665 5.12159 1.75733C4.96479 1.83723 4.83731 1.96471 4.75741 2.12151C4.66659 2.29977 4.66659 2.53313 4.66659 2.99984V3.6665C4.66659 4.13321 4.66659 4.36657 4.75741 4.54483C4.83731 4.70163 4.96479 4.82912 5.12159 4.90901C5.29985 4.99984 5.53321 4.99984 5.99992 4.99984Z" stroke="#323B50" stroke-width="1.5" stroke-linecap="round" stroke-linejoin="round"/>
</svg>
