<svg width="25" height="24" viewBox="0 0 25 24" fill="none" xmlns="http://www.w3.org/2000/svg">
<g id="clapperboard 1" clip-path="url(#clip0_2474_106976)">
<path id="Vector" d="M3.80637 0.730911L8.53001 5.45455H0.348182C0.51514 4.45164 0.914971 3.50186 1.51556 2.6815C2.11615 1.86114 2.90076 1.19305 3.80637 0.730911ZM10.1555 5.15299e-07H6.79546C6.58819 5.15299e-07 6.38092 0.0109096 6.17365 0.0218187L11.6064 5.45455H15.61L10.1555 5.15299e-07ZM17.7046 5.15299e-07H13.2537L18.7082 5.45455H24.1519C23.8963 3.92954 23.1082 2.54456 21.9277 1.54585C20.7472 0.547128 19.2509 -0.000613279 17.7046 5.15299e-07ZM10.5939 18.1375L16.0485 15.1375C16.2197 15.0435 16.3626 14.9052 16.4621 14.7371C16.5616 14.569 16.6142 14.3772 16.6142 14.1818C16.6142 13.9865 16.5616 13.7947 16.4621 13.6266C16.3626 13.4585 16.2197 13.3202 16.0485 13.2262L10.5939 10.2262C10.4278 10.1349 10.2408 10.0884 10.0513 10.0913C9.86173 10.0942 9.67624 10.1465 9.51306 10.243C9.34989 10.3394 9.21466 10.4767 9.12071 10.6414C9.02676 10.806 8.97733 10.9923 8.97729 11.1818V17.1818C8.97733 17.3714 9.02676 17.5577 9.12071 17.7223C9.21466 17.8869 9.34989 18.0242 9.51306 18.1207C9.67624 18.2172 9.86173 18.2694 10.0513 18.2724C10.2408 18.2753 10.4278 18.2288 10.5939 18.1375ZM24.25 7.63638V17.4546C24.2486 19.1901 23.5586 20.8542 22.3314 22.0814C21.1042 23.3086 19.4401 23.9986 17.7046 24H6.79546C5.05992 23.9986 3.39587 23.3086 2.16865 22.0814C0.941442 20.8542 0.251387 19.1901 0.25 17.4546V7.63638H24.25Z" fill="#323B50"/>
</g>
<defs>
<clipPath id="clip0_2474_106976">
<rect width="24" height="24" fill="white" transform="translate(0.25)"/>
</clipPath>
</defs>
</svg>
