<svg width="25" height="24" viewBox="0 0 25 24" fill="none" xmlns="http://www.w3.org/2000/svg">
<path fill-rule="evenodd" clip-rule="evenodd" d="M5.46147 7H13.1386C13.6657 6.99998 14.1205 6.99997 14.495 7.03057C14.8904 7.06287 15.2836 7.13419 15.662 7.32698C16.2265 7.6146 16.6854 8.07354 16.973 8.63803C17.1658 9.01641 17.2371 9.40963 17.2694 9.80497C17.3001 10.1795 17.3 10.6343 17.3 11.1614V18.8385C17.3 19.3657 17.3001 19.8205 17.2694 20.195C17.2371 20.5904 17.1658 20.9836 16.973 21.362C16.6854 21.9265 16.2265 22.3854 15.662 22.673C15.2836 22.8658 14.8904 22.9371 14.495 22.9694C14.1205 23 13.6658 23 13.1387 23H5.4615C4.93439 23 4.47954 23 4.10499 22.9694C3.70964 22.9371 3.31643 22.8658 2.93805 22.673C2.37356 22.3854 1.91462 21.9265 1.627 21.362C1.4342 20.9836 1.36289 20.5904 1.33059 20.195C1.29998 19.8205 1.3 19.3657 1.30002 18.8385V11.1615C1.3 10.6343 1.29998 10.1796 1.33059 9.80497C1.36289 9.40963 1.4342 9.01641 1.627 8.63803C1.91462 8.07354 2.37356 7.6146 2.93805 7.32698C3.31643 7.13419 3.70964 7.06287 4.10499 7.03057C4.47955 6.99997 4.93434 6.99998 5.46147 7Z" fill="#323B50"/>
<path d="M19.1386 1H11.4615C10.9343 0.999984 10.4796 0.999969 10.105 1.03057C9.70965 1.06287 9.31643 1.13419 8.93805 1.32698C8.37357 1.6146 7.91462 2.07354 7.627 2.63803C7.43421 3.01641 7.36289 3.40963 7.33059 3.80497C7.30316 4.14076 7.30033 4.54098 7.30005 5.00003L13.1809 5.00001C13.6695 4.9999 14.1993 4.99977 14.6579 5.03724C15.1769 5.07964 15.8627 5.1846 16.57 5.54499C17.5108 6.02436 18.2757 6.78926 18.755 7.73007C19.1154 8.43739 19.2204 9.12311 19.2628 9.64213C19.3003 10.1007 19.3001 10.6305 19.3 11.1192L19.3 17C19.7591 16.9997 20.1593 16.9969 20.4951 16.9694C20.8904 16.9371 21.2836 16.8658 21.662 16.673C22.2265 16.3854 22.6854 15.9265 22.973 15.362C23.1658 14.9836 23.2372 14.5904 23.2695 14.195C23.3001 13.8205 23.3 13.3658 23.3 12.8386V5.16148C23.3 4.63437 23.3001 4.17952 23.2695 3.80497C23.2372 3.40963 23.1658 3.01641 22.973 2.63803C22.6854 2.07354 22.2265 1.6146 21.662 1.32698C21.2836 1.13419 20.8904 1.06287 20.4951 1.03057C20.1205 0.999969 19.6657 0.999984 19.1386 1Z" fill="#323B50"/>
</svg>
