<svg width="120" height="120" viewBox="0 0 120 120" fill="none" xmlns="http://www.w3.org/2000/svg">
<path fill-rule="evenodd" clip-rule="evenodd" d="M76.0727 108.094C73.7602 114.433 67.7325 118.599 61.0248 118.599H60.8165L60.6086 118.587C54.2219 118.206 49.2939 114.597 46.1613 110.371C43.0629 106.191 41.2905 100.893 41.3048 95.772V84.2311L25.9297 84.2311L25.8746 84.2302C15.9158 84.0735 8.01477 81.0183 3.96877 73.8254C0.301765 67.3056 1.44753 59.6879 2.94553 53.2983C4.86381 46.896 7.47224 39.8938 9.0954 33.8164L9.39322 33.0718C11.4054 26.688 13.2625 21.9613 14.0982 19.1587L14.2898 18.56L14.4788 17.997C15.6448 14.536 17.3128 9.91302 21.2148 6.48502C25.3404 2.86102 30.7874 1.49503 37.4328 1.49503L80.9448 1.49503C83.2824 1.49503 85.4032 2.41102 86.9688 3.90302C88.5344 2.41102 90.6552 1.49503 92.9928 1.49503H93.0045H93.0163C93.7907 1.49803 94.6362 1.47703 95.641 1.45103H95.651C96.6164 1.42603 97.7133 1.39902 98.8284 1.40002C101.016 1.40202 103.689 1.51002 106.302 2.12602C108.943 2.74802 112.021 4.00602 114.466 6.68302C116.994 9.45102 118.166 12.986 118.3 16.842L118.305 16.965V57.1671C118.305 65.7851 111.331 72.7591 102.713 72.7591H93.0267C91.2271 72.7811 89.5843 72.2627 88.2198 71.3707C87.9498 72.2106 87.6424 73.1562 87.3071 74.1803C86.0733 77.9495 84.4243 82.897 82.7777 87.8231C82.2858 89.2951 81.7941 90.7649 81.3133 92.202C80.1815 95.5853 79.1102 98.7874 78.2386 101.409C77.6173 103.278 77.1038 104.834 76.7451 105.939C76.6018 106.381 76.4885 106.735 76.4051 107.001L76.382 107.247L76.0727 108.094ZM76.2772 107.419C76.2789 107.412 76.2829 107.399 76.2895 107.376C76.2505 107.534 76.2334 107.574 76.2772 107.419ZM62.8423 103.481C62.8826 103.343 62.9262 103.199 62.9688 103.061C63.0842 102.687 63.2416 102.195 63.428 101.62C63.8034 100.463 64.3305 98.867 64.9535 96.993C65.8293 94.3583 66.9072 91.1362 68.041 87.747C68.521 86.3123 69.0109 84.8477 69.4998 83.385C71.1473 78.4562 72.7833 73.5472 74.0019 69.8247C74.6127 67.959 75.1092 66.4198 75.4475 65.3347C75.5375 65.0462 75.6123 64.8025 75.6728 64.6017L75.6728 15.495L37.4328 15.495C32.5581 15.495 31.0212 16.505 30.4548 17.003C29.7033 17.663 29.0054 18.821 27.9187 21.9613C27.0509 26.7257 24.7236 32.5982 22.6076 37.9377C22.5274 38.1401 22.4475 38.3416 22.368 38.5424C19.9193 44.7258 17.5348 50.7884 16.2518 56.2594C14.9058 62.0048 15.2358 65.3001 16.1708 66.962C16.7258 67.9486 18.5138 70.1026 26.0419 70.2311L55.3048 70.2311L55.3048 95.7948L55.3047 95.8066C55.2979 97.8339 56.0572 100.211 57.4083 102.034C58.6488 103.707 59.9994 104.446 61.2114 104.591C61.9344 104.527 62.5436 104.095 62.8423 103.481ZM98.2648 58.7591H102.713C103.599 58.7591 104.305 58.0531 104.305 57.1671L104.305 17.229C104.273 16.578 104.173 16.253 104.115 16.122C104.02 16.059 103.735 15.904 103.089 15.752C102.063 15.51 100.673 15.402 98.8129 15.4C98.6309 15.4 98.4484 15.4 98.2648 15.402L98.2648 58.7591ZM104.103 16.095C104.081 16.068 104.075 16.05 104.075 16.05C104.076 16.048 104.087 16.062 104.103 16.095Z" fill="white"/>
<path d="M91.4668 64.0317L91.4668 10.1999C91.4668 9.23993 92.2348 8.47192 93.1948 8.47192H102.939C107.691 8.47192 111.531 12.3119 111.531 17.0639L111.531 57.1437C111.531 61.8957 107.691 65.7357 102.939 65.7357H93.1948C92.2348 65.7597 91.4668 64.9917 91.4668 64.0317ZM26.2108 77.2077H48.5308L48.5308 95.7597C48.5308 101.496 51.4108 106.872 56.2108 110.016C57.6988 111.024 59.4508 111.552 61.2508 111.552C65.0428 111.552 68.4268 109.2 69.7228 105.648L82.8028 66.0237C82.8508 65.8557 82.8988 65.6637 82.8988 65.4957L82.8988 10.2239C82.8988 9.26392 82.1308 8.49593 81.1708 8.49593L37.6588 8.49593C26.1388 8.49593 23.6908 13.2479 21.3388 20.2317L9.89076 54.5997C6.17076 65.6877 8.97876 77.2077 26.2108 77.2077Z" fill="#9CA6C1"/>
</svg>
