<svg width="37" height="36" viewBox="0 0 37 36" fill="none" xmlns="http://www.w3.org/2000/svg">
<path d="M27.9589 19.1083L27.9589 4.225C27.9589 4.09902 28.009 3.9782 28.098 3.88912C28.1871 3.80004 28.3079 3.75 28.4339 3.75H31.1253C31.7551 3.75 32.3591 4.00023 32.8045 4.44562C33.2498 4.89102 33.5 5.49511 33.5 6.125V17.2083C33.5 17.8382 33.2498 18.4423 32.8045 18.8877C32.3591 19.3331 31.7551 19.5833 31.1253 19.5833H28.4339C28.3079 19.5833 28.1871 19.5333 28.098 19.4442C28.009 19.3551 27.9589 19.2343 27.9589 19.1083ZM9.91086 22.75L16.0852 22.75V27.88C16.0841 28.6616 16.2775 29.4311 16.6478 30.1193C17.0182 30.8076 17.5538 31.3928 18.2066 31.8225C18.6191 32.0984 19.1036 32.2471 19.5998 32.25C20.1104 32.251 20.6089 32.0951 21.028 31.8034C21.4471 31.5117 21.7664 31.0983 21.9429 30.6192L25.5604 19.6562C25.5762 19.6081 25.5842 19.5579 25.5842 19.5073L25.5842 4.225C25.5842 4.09902 25.5341 3.9782 25.4451 3.88912C25.356 3.80004 25.2352 3.75 25.1092 3.75L13.0772 3.75C9.89503 3.75 9.21427 5.06416 8.56517 6.99583L5.39885 16.4958C4.36979 19.5675 5.14871 22.75 9.91086 22.75Z" fill="white"/>
</svg>
