<svg width="25" height="24" viewBox="0 0 25 24" fill="none" xmlns="http://www.w3.org/2000/svg">
<path fill-rule="evenodd" clip-rule="evenodd" d="M10.1 12C10.1 10.8954 10.9955 10 12.1 10C13.2046 10 14.1 10.8954 14.1 12C14.1 13.1046 13.2046 14 12.1 14C10.9955 14 10.1 13.1046 10.1 12Z" fill="#323B50"/>
<path fill-rule="evenodd" clip-rule="evenodd" d="M17.1 12C17.1 10.8954 17.9955 10 19.1 10C20.2046 10 21.1 10.8954 21.1 12C21.1 13.1046 20.2046 14 19.1 14C17.9955 14 17.1 13.1046 17.1 12Z" fill="#323B50"/>
<path fill-rule="evenodd" clip-rule="evenodd" d="M3.10004 12C3.10004 10.8954 3.99547 10 5.10004 10C6.20461 10 7.10004 10.8954 7.10004 12C7.10004 13.1046 6.20461 14 5.10004 14C3.99547 14 3.10004 13.1046 3.10004 12Z" fill="#323B50"/>
</svg>
