<svg width="49" height="48" viewBox="0 0 49 48" fill="none" xmlns="http://www.w3.org/2000/svg">
<path d="M16.2084 12.1387C16.6023 11.9068 16.7336 11.3995 16.5017 11.0057C15.9433 10.057 15.6481 8.97 15.6481 7.86206C15.6481 4.43953 18.4325 1.65516 21.855 1.65516C25.2776 1.65516 28.0619 4.43953 28.0619 7.86206C28.0619 8.97412 27.7646 10.0649 27.2021 11.0163C26.9695 11.4098 27.0998 11.9173 27.4933 12.1499C27.6254 12.2281 27.7705 12.2652 27.9137 12.2652C28.1967 12.2652 28.4724 12.12 28.6269 11.8587C29.3402 10.6524 29.7172 9.27037 29.7172 7.86206C29.7171 3.52687 26.1902 0 21.855 0C17.5198 0 13.993 3.52687 13.993 7.86206C13.993 9.26503 14.3672 10.6424 15.0753 11.8453C15.3072 12.2392 15.8146 12.3705 16.2084 12.1387Z" fill="white"/>
<path d="M15.6759 40.691C18.2795 45.1993 23.1312 48 28.3373 48C36.3994 48 42.9584 41.441 42.9584 33.3788V21.931C42.9584 19.8775 41.2878 18.2069 39.2342 18.2069C38.4165 18.2069 37.6596 18.4718 37.0447 18.9203C36.6265 17.3213 35.1694 16.1379 33.4411 16.1379C32.5765 16.1379 31.7796 16.4342 31.1469 16.9305C30.6248 15.5038 29.2534 14.4828 27.648 14.4828C26.8831 14.4828 26.1712 14.7146 25.5791 15.1118V7.86206C25.5791 5.80856 23.9084 4.13794 21.8548 4.13794C19.8013 4.13794 18.1307 5.80856 18.1307 7.86206V27.606C18.1307 27.8599 17.9819 28.093 17.7518 28.2002C17.4417 28.3443 17.0789 28.2298 16.908 27.9337L14.4248 23.6326C12.9418 21.0638 9.6455 20.1806 7.07666 21.6637C6.59806 21.94 6.25569 22.3862 6.11263 22.9201C5.96966 23.454 6.04316 24.0115 6.31953 24.4902L15.6759 40.691ZM7.71172 23.3484C7.72831 23.2867 7.77538 23.1717 7.90456 23.0972C8.47841 22.7659 9.11516 22.5967 9.76044 22.5967C10.0839 22.5967 10.4096 22.6392 10.7303 22.7252C11.6911 22.9826 12.4942 23.5988 12.9915 24.4603L15.4748 28.7614C16.0777 29.8057 17.3569 30.2095 18.4501 29.7011C19.2617 29.3236 19.7862 28.5013 19.7862 27.6062V7.86206C19.7862 6.72122 20.7143 5.7931 21.8551 5.7931C22.996 5.7931 23.9241 6.72122 23.9241 7.86206V23.1724C23.9241 23.6294 24.2946 24 24.7517 24C25.2088 24 25.5793 23.6295 25.5793 23.1724V18.2069C25.5793 17.0661 26.5075 16.1379 27.6483 16.1379C28.7892 16.1379 29.7173 17.0661 29.7173 18.2069V23.1724C29.7173 23.6294 30.0878 24 30.5449 24C31.0019 24 31.3725 23.6295 31.3725 23.1724V19.8621C31.3725 18.7212 32.3007 17.7931 33.4415 17.7931C34.5823 17.7931 35.5105 18.7212 35.5105 19.8621V23.5862C35.5105 24.0432 35.881 24.4138 36.3381 24.4138C36.7951 24.4138 37.1657 24.0433 37.1657 23.5862V21.931C37.1657 20.7902 38.0938 19.8621 39.2347 19.8621C40.3755 19.8621 41.3037 20.7902 41.3037 21.931V33.3788C41.3037 40.5283 35.4871 46.3448 28.3376 46.3448C23.7207 46.3448 19.4185 43.8612 17.1095 39.8632L7.75306 23.6624C7.67844 23.5333 7.69513 23.4102 7.71172 23.3484Z" fill="white"/>
<path d="M27.9208 35.2586C27.5452 35.4997 27.1904 35.7273 26.8732 35.9558C26.0629 36.5397 25.5792 37.4842 25.5792 38.4827C25.5792 38.9397 25.9497 39.3103 26.4068 39.3103H31.3722C31.8293 39.3103 32.1999 38.9398 32.1999 38.4827C32.1999 38.0257 31.8294 37.6551 31.3722 37.6551H27.4922C27.586 37.5187 27.7033 37.3976 27.8406 37.2987C28.1217 37.0962 28.4583 36.8802 28.8146 36.6516C30.3227 35.6838 32.1997 34.4793 32.1997 32.7154C32.1997 30.8901 30.7147 29.4051 28.8894 29.4051C27.0641 29.4051 25.5791 30.8901 25.5791 32.7154C25.5791 33.1724 25.9496 33.543 26.4067 33.543C26.8637 33.543 27.2343 33.1725 27.2343 32.7154C27.2343 31.8027 27.9768 31.0602 28.8895 31.0602C29.8021 31.0602 30.5446 31.8027 30.5446 32.7154C30.5447 33.5749 29.0281 34.5481 27.9208 35.2586Z" fill="white"/>
</svg>
