<svg width="20" height="20" viewBox="0 0 20 20" fill="none" xmlns="http://www.w3.org/2000/svg">
<path opacity="0.12" d="M17.5 5.83326C18.4204 4.91279 18.4204 3.4204 17.5 2.49993C16.5795 1.57945 15.0871 1.57945 14.1666 2.49992L11.6666 4.99993L15 8.33326L17.5 5.83326Z" fill="#323B50"/>
<path d="M15.0001 8.33326L11.6667 4.99993M2.08337 17.9166L4.90368 17.6032C5.24826 17.5649 5.42054 17.5458 5.58158 17.4937C5.72445 17.4474 5.86041 17.3821 5.98578 17.2994C6.12709 17.2062 6.24966 17.0836 6.49481 16.8385L17.5001 5.83326C18.4205 4.91279 18.4205 3.4204 17.5001 2.49993C16.5796 1.57945 15.0872 1.57945 14.1667 2.49992L3.16148 13.5052C2.91633 13.7503 2.79375 13.8729 2.70057 14.0142C2.6179 14.1396 2.55255 14.2755 2.5063 14.4184C2.45417 14.5794 2.43503 14.7517 2.39674 15.0963L2.08337 17.9166Z" stroke="#323B50" stroke-width="2" stroke-linecap="round" stroke-linejoin="round"/>
</svg>
