<svg width="17" height="16" viewBox="0 0 17 16" fill="none" xmlns="http://www.w3.org/2000/svg">
<g id="Media / Icon / Outline / edit-01" clip-path="url(#clip0_7781_31472)">
<path id="Icon" d="M2.41744 12.0776C2.44807 11.802 2.46339 11.6641 2.50509 11.5353C2.54209 11.421 2.59437 11.3122 2.66051 11.2119C2.73505 11.0989 2.83311 11.0008 3.02923 10.8047L11.8334 2.00053C12.5698 1.26415 13.7637 1.26415 14.5001 2.00053C15.2365 2.73691 15.2365 3.93082 14.5001 4.66719L5.6959 13.4714C5.49978 13.6675 5.40172 13.7656 5.28867 13.8401C5.18838 13.9062 5.07961 13.9585 4.96531 13.9955C4.83648 14.0372 4.69865 14.0525 4.42299 14.0832L2.16675 14.3339L2.41744 12.0776Z" stroke="#323B50" stroke-width="2" stroke-linecap="round" stroke-linejoin="round"/>
</g>
<defs>
<clipPath id="clip0_7781_31472">
<rect width="16" height="16" fill="white" transform="translate(0.5)"/>
</clipPath>
</defs>
</svg>
