<svg width="21" height="20" viewBox="0 0 21 20" fill="none" xmlns="http://www.w3.org/2000/svg">
<path d="M12.1667 1.89118V5.33329C12.1667 5.8 12.1667 6.03336 12.2575 6.21162C12.3374 6.36842 12.4649 6.4959 12.6217 6.5758C12.8 6.66663 13.0333 6.66663 13.5 6.66663H16.9422M17.1667 8.32348V14.3333C17.1667 15.7334 17.1667 16.4335 16.8942 16.9683C16.6545 17.4387 16.2721 17.8211 15.8017 18.0608C15.2669 18.3333 14.5668 18.3333 13.1667 18.3333H7.83337C6.43324 18.3333 5.73318 18.3333 5.1984 18.0608C4.72799 17.8211 4.34554 17.4387 4.10586 16.9683C3.83337 16.4335 3.83337 15.7334 3.83337 14.3333V5.66663C3.83337 4.26649 3.83337 3.56643 4.10586 3.03165C4.34554 2.56124 4.72799 2.17879 5.1984 1.93911C5.73318 1.66663 6.43324 1.66663 7.83337 1.66663H10.5099C11.1213 1.66663 11.4271 1.66663 11.7148 1.7357C11.9699 1.79694 12.2137 1.89795 12.4374 2.03503C12.6897 2.18963 12.9059 2.40582 13.3383 2.8382L15.9951 5.49505C16.4275 5.92743 16.6437 6.14362 16.7983 6.39591C16.9354 6.61959 17.0364 6.86346 17.0976 7.11855C17.1667 7.40627 17.1667 7.712 17.1667 8.32348Z" stroke="#546286" stroke-width="2" stroke-linecap="round" stroke-linejoin="round"/>
</svg>
