<svg width="20" height="21" viewBox="0 0 20 21" fill="none" xmlns="http://www.w3.org/2000/svg">
<path opacity="0.12" d="M15.9344 6.43384L12.3989 2.89831C12.1851 2.68454 11.9366 2.51348 11.6667 2.39062V5.83274C11.6667 6.29945 11.6667 6.53281 11.7575 6.71107C11.8374 6.86787 11.9649 6.99535 12.1217 7.07525C12.2999 7.16608 12.5333 7.16608 13 7.16608H16.4421C16.3193 6.89611 16.1482 6.64761 15.9344 6.43384Z" fill="#323B50"/>
<path d="M11.6667 2.39063V5.83274C11.6667 6.29945 11.6667 6.53281 11.7575 6.71107C11.8374 6.86787 11.9649 6.99535 12.1217 7.07525C12.2999 7.16608 12.5333 7.16608 13 7.16608H16.4421M13.3333 11.3327H6.66668M13.3333 14.666H6.66668M8.33334 7.99935H6.66668M11.6667 2.16602H7.33334C5.93321 2.16602 5.23315 2.16602 4.69837 2.4385C4.22796 2.67818 3.84551 3.06063 3.60583 3.53104C3.33334 4.06582 3.33334 4.76588 3.33334 6.16602V14.8327C3.33334 16.2328 3.33334 16.9329 3.60583 17.4677C3.84551 17.9381 4.22796 18.3205 4.69837 18.5602C5.23315 18.8327 5.93321 18.8327 7.33334 18.8327H12.6667C14.0668 18.8327 14.7669 18.8327 15.3017 18.5602C15.7721 18.3205 16.1545 17.9381 16.3942 17.4677C16.6667 16.9329 16.6667 16.2328 16.6667 14.8327V7.16602L11.6667 2.16602Z" stroke="#323B50" stroke-width="1.5" stroke-linecap="round" stroke-linejoin="round"/>
</svg>
