<svg width="25" height="24" viewBox="0 0 25 24" fill="none" xmlns="http://www.w3.org/2000/svg">
<g id="Media / Icon / Solid / grid-01">
<g id="Solid">
<path fill-rule="evenodd" clip-rule="evenodd" d="M5.31811 2C6.60605 2.00016 7.8965 2.00016 9.1819 2C9.43429 1.99997 9.68008 1.99994 9.88824 2.01695C10.1168 2.03563 10.3866 2.07969 10.658 2.21799C11.0343 2.40974 11.3403 2.7157 11.532 3.09202C11.6703 3.36345 11.7144 3.63318 11.7331 3.86178C11.7501 4.06994 11.75 4.31574 11.75 4.56813V8.43189C11.75 8.68427 11.7501 8.93007 11.7331 9.13824C11.7144 9.36683 11.6703 9.63656 11.532 9.90799C11.3403 10.2843 11.0343 10.5903 10.658 10.782C10.3866 10.9203 10.1168 10.9644 9.88824 10.9831C9.68007 11.0001 9.43427 11 9.18189 11H5.31812C5.06574 11 4.81994 11.0001 4.61178 10.9831C4.38318 10.9644 4.11345 10.9203 3.84202 10.782C3.4657 10.5903 3.15974 10.2843 2.96799 9.90799C2.82969 9.63656 2.78563 9.36683 2.76695 9.13824C2.74994 8.93008 2.74997 8.68429 2.75 8.4319C2.75 8.42128 2.75001 8.41065 2.75001 8.40001V4.60001C2.75001 4.58936 2.75 4.57873 2.75 4.56811C2.74997 4.31572 2.74994 4.06993 2.76695 3.86178C2.78563 3.63318 2.82969 3.36345 2.96799 3.09202C3.15974 2.7157 3.4657 2.40974 3.84202 2.21799C4.11345 2.07969 4.38318 2.03563 4.61178 2.01695C4.81993 1.99994 5.06572 1.99997 5.31811 2Z" fill="#007AFF"/>
<path fill-rule="evenodd" clip-rule="evenodd" d="M5.31811 13C6.60605 13.0002 7.8965 13.0002 9.1819 13C9.43429 13 9.68008 12.9999 9.88824 13.017C10.1168 13.0356 10.3866 13.0797 10.658 13.218C11.0343 13.4097 11.3403 13.7157 11.532 14.092C11.6703 14.3634 11.7144 14.6332 11.7331 14.8618C11.7501 15.0699 11.75 15.3157 11.75 15.5681V19.4319C11.75 19.6843 11.7501 19.9301 11.7331 20.1382C11.7144 20.3668 11.6703 20.6366 11.532 20.908C11.3403 21.2843 11.0343 21.5903 10.658 21.782C10.3866 21.9203 10.1168 21.9644 9.88824 21.9831C9.68007 22.0001 9.43427 22 9.18189 22H5.31812C5.06574 22 4.81994 22.0001 4.61178 21.9831C4.38318 21.9644 4.11345 21.9203 3.84202 21.782C3.4657 21.5903 3.15974 21.2843 2.96799 20.908C2.82969 20.6366 2.78563 20.3668 2.76695 20.1382C2.74994 19.9301 2.74997 19.6843 2.75 19.4319C2.75 19.4213 2.75001 19.4106 2.75001 19.4V15.6C2.75001 15.5894 2.75 15.5787 2.75 15.5681C2.74997 15.3157 2.74994 15.0699 2.76695 14.8618C2.78563 14.6332 2.82969 14.3634 2.96799 14.092C3.15974 13.7157 3.4657 13.4097 3.84202 13.218C4.11345 13.0797 4.38318 13.0356 4.61178 13.017C4.81993 12.9999 5.06572 13 5.31811 13Z" fill="#007AFF"/>
<path fill-rule="evenodd" clip-rule="evenodd" d="M16.3181 2C17.606 2.00016 18.8965 2.00016 20.1819 2C20.4343 1.99997 20.6801 1.99994 20.8882 2.01695C21.1168 2.03563 21.3866 2.07969 21.658 2.21799C22.0343 2.40974 22.3403 2.7157 22.532 3.09202C22.6703 3.36345 22.7144 3.63318 22.7331 3.86178C22.7501 4.06994 22.75 4.31574 22.75 4.56813V8.43189C22.75 8.68427 22.7501 8.93007 22.7331 9.13824C22.7144 9.36683 22.6703 9.63656 22.532 9.90799C22.3403 10.2843 22.0343 10.5903 21.658 10.782C21.3866 10.9203 21.1168 10.9644 20.8882 10.9831C20.6801 11.0001 20.4343 11 20.1819 11H16.3181C16.0657 11 15.8199 11.0001 15.6118 10.9831C15.3832 10.9644 15.1134 10.9203 14.842 10.782C14.4657 10.5903 14.1597 10.2843 13.968 9.90799C13.8297 9.63656 13.7856 9.36683 13.767 9.13824C13.7499 8.93008 13.75 8.68429 13.75 8.4319C13.75 8.42128 13.75 8.41065 13.75 8.40001V4.60001C13.75 4.58936 13.75 4.57873 13.75 4.56811C13.75 4.31572 13.7499 4.06993 13.767 3.86178C13.7856 3.63318 13.8297 3.36345 13.968 3.09202C14.1597 2.7157 14.4657 2.40974 14.842 2.21799C15.1134 2.07969 15.3832 2.03563 15.6118 2.01695C15.8199 1.99994 16.0657 1.99997 16.3181 2Z" fill="#007AFF"/>
<path fill-rule="evenodd" clip-rule="evenodd" d="M16.3181 13C17.606 13.0002 18.8965 13.0002 20.1819 13C20.4343 13 20.6801 12.9999 20.8882 13.017C21.1168 13.0356 21.3866 13.0797 21.658 13.218C22.0343 13.4097 22.3403 13.7157 22.532 14.092C22.6703 14.3634 22.7144 14.6332 22.7331 14.8618C22.7501 15.0699 22.75 15.3157 22.75 15.5681V19.4319C22.75 19.6843 22.7501 19.9301 22.7331 20.1382C22.7144 20.3668 22.6703 20.6366 22.532 20.908C22.3403 21.2843 22.0343 21.5903 21.658 21.782C21.3866 21.9203 21.1168 21.9644 20.8882 21.9831C20.6801 22.0001 20.4343 22 20.1819 22H16.3181C16.0657 22 15.8199 22.0001 15.6118 21.9831C15.3832 21.9644 15.1134 21.9203 14.842 21.782C14.4657 21.5903 14.1597 21.2843 13.968 20.908C13.8297 20.6366 13.7856 20.3668 13.767 20.1382C13.7499 19.9301 13.75 19.6843 13.75 19.4319C13.75 19.4213 13.75 19.4106 13.75 19.4V15.6C13.75 15.5894 13.75 15.5787 13.75 15.5681C13.75 15.3157 13.7499 15.0699 13.767 14.8618C13.7856 14.6332 13.8297 14.3634 13.968 14.092C14.1597 13.7157 14.4657 13.4097 14.842 13.218C15.1134 13.0797 15.3832 13.0356 15.6118 13.017C15.8199 12.9999 16.0657 13 16.3181 13Z" fill="#007AFF"/>
</g>
</g>
</svg>
