<svg width="20" height="20" viewBox="0 0 20 20" fill="none" xmlns="http://www.w3.org/2000/svg">
<path fill-rule="evenodd" clip-rule="evenodd" d="M9.99999 0.833008C4.93738 0.833008 0.833328 4.93706 0.833328 9.99967C0.833328 15.0623 4.93738 19.1663 9.99999 19.1663C15.0626 19.1663 19.1667 15.0623 19.1667 9.99967C19.1667 4.93706 15.0626 0.833008 9.99999 0.833008ZM9.08885 6.89236C9.42819 6.69293 9.82715 6.62003 10.2151 6.68657C10.603 6.75311 10.9549 6.9548 11.2084 7.25592C11.4618 7.55703 11.6006 7.93814 11.6 8.33173L11.6 8.33298C11.6 8.72392 11.2957 9.13149 10.7211 9.5146C10.4591 9.68925 10.1912 9.82379 9.9855 9.91521C9.88383 9.9604 9.80027 9.99377 9.74408 10.0152C9.71915 10.0247 9.6941 10.0339 9.66893 10.0427C9.23287 10.1886 8.99731 10.6602 9.14275 11.0965C9.28829 11.5331 9.76023 11.7691 10.1968 11.6235L10.3374 11.5727C10.4179 11.542 10.5297 11.4972 10.6624 11.4382C10.9255 11.3213 11.2825 11.1434 11.6456 10.9013C12.3208 10.4512 13.2663 9.60903 13.2667 8.33373C13.2677 7.54671 12.9903 6.78468 12.4834 6.18258C11.9765 5.58036 11.2727 5.17698 10.4969 5.0439C9.72098 4.91081 8.92305 5.05662 8.24438 5.45548C7.56571 5.85434 7.0501 6.48051 6.78888 7.2231C6.63615 7.65726 6.8643 8.13303 7.29845 8.28575C7.73261 8.43848 8.20837 8.21034 8.3611 7.77618C8.49171 7.40488 8.74952 7.09179 9.08885 6.89236ZM9.99999 13.333C9.53975 13.333 9.16666 13.7061 9.16666 14.1663C9.16666 14.6265 9.53975 14.9996 9.99999 14.9996H10.0083C10.4686 14.9996 10.8417 14.6265 10.8417 14.1663C10.8417 13.7061 10.4686 13.333 10.0083 13.333H9.99999Z" fill="white"/>
</svg>
