<svg width="121" height="120" viewBox="0 0 121 120" fill="none" xmlns="http://www.w3.org/2000/svg">
<rect x="0.5" width="120" height="120" rx="30.25" fill="white"/>
<path d="M31.8788 90.5V37.8239H41.9123V54.1284C44.3743 52.8742 47.1149 52.1774 50.0414 52.1774C60.0749 52.1774 68.2504 60.3065 68.2504 70.34V90.5H58.2169V70.34C58.2169 65.8806 54.5472 62.211 50.0414 62.211C45.582 62.211 41.9123 65.8806 41.9123 70.34V90.5H31.8788ZM88.2724 40.7503C88.2724 44.6523 85.0673 47.8574 81.1189 47.8574C77.2169 47.8574 74.0118 44.6523 74.0118 40.7503C74.0118 36.8019 77.2169 33.5968 81.1189 33.5968C85.0673 33.5968 88.2724 36.8019 88.2724 40.7503ZM76.1021 90.5V52.8742H86.1356V90.5H76.1021Z" fill="#007AFF"/>
</svg>
