<svg width="20" height="20" viewBox="0 0 20 20" fill="none" xmlns="http://www.w3.org/2000/svg">
<g clip-path="url(#clip0_2394_113208)">
<path d="M2.96364 0.609092L6.90001 4.54546H0.0818182C0.22095 3.7097 0.554142 2.91822 1.05463 2.23458C1.55512 1.55095 2.20897 0.994211 2.96364 0.609092ZM8.25456 4.29416e-07H5.45455C5.28183 4.29416e-07 5.1091 0.00909133 4.93637 0.0181823L9.46365 4.54546H12.8L8.25456 4.29416e-07ZM14.5455 4.29416e-07H10.8364L15.3818 4.54546H19.9182C19.7052 3.27462 19.0485 2.12047 18.0648 1.2882C17.081 0.45594 15.834 -0.000511066 14.5455 4.29416e-07ZM8.61992 15.1146L13.1654 12.6146C13.3081 12.5362 13.4272 12.421 13.5101 12.2809C13.593 12.1408 13.6368 11.981 13.6368 11.8182C13.6368 11.6554 13.593 11.4956 13.5101 11.3555C13.4272 11.2154 13.3081 11.1001 13.1654 11.0218L8.61992 8.52183C8.48151 8.44571 8.32566 8.40697 8.16772 8.40942C8.00977 8.41187 7.8552 8.45543 7.71922 8.53582C7.58324 8.6162 7.47055 8.73062 7.39226 8.86782C7.31397 9.00501 7.27277 9.16023 7.27274 9.31819V14.3182C7.27277 14.4762 7.31397 14.6314 7.39226 14.7686C7.47055 14.9058 7.58324 15.0202 7.71922 15.1006C7.8552 15.181 8.00977 15.2245 8.16772 15.227C8.32566 15.2294 8.48151 15.1907 8.61992 15.1146ZM20 6.36365V14.5455C19.9989 15.9918 19.4238 17.3785 18.4012 18.4012C17.3785 19.4238 15.9918 19.9989 14.5455 20H5.45455C4.00827 19.9989 2.62155 19.4238 1.59888 18.4012C0.576201 17.3785 0.00115564 15.9918 0 14.5455V6.36365H20Z" fill="white"/>
</g>
<defs>
<clipPath id="clip0_2394_113208">
<rect width="20" height="20" fill="white"/>
</clipPath>
</defs>
</svg>
