<svg width="37" height="36" viewBox="0 0 37 36" fill="none" xmlns="http://www.w3.org/2000/svg">
<rect x="0.5" width="36" height="36" rx="9.12102" fill="#007AFF"/>
<path d="M9.96133 27.8948H12.9867V21.8161C12.9867 20.4715 14.0931 19.365 15.4377 19.365C16.7963 19.365 17.9028 20.4715 17.9028 21.8161V27.8948H20.9281V21.8161C20.9281 18.7908 18.4631 16.3397 15.4377 16.3397C14.5553 16.3397 13.729 16.5498 12.9867 16.928V12.0118H9.96133V27.8948ZM26.9652 12.8942C26.9652 11.7037 25.9988 10.7372 24.8083 10.7372C23.6317 10.7372 22.6653 11.7037 22.6653 12.8942C22.6653 14.0707 23.6317 15.0371 24.8083 15.0371C25.9988 15.0371 26.9652 14.0707 26.9652 12.8942ZM23.2956 27.8948H26.3209V16.5498H23.2956V27.8948Z" fill="white"/>
</svg>
