<svg width="49" height="48" viewBox="0 0 49 48" fill="none" xmlns="http://www.w3.org/2000/svg">
<rect x="0.5" width="48" height="48" rx="12.1138" fill="#007AFF"/>
<path d="M13.0658 35.8132V14.7188H17.0838V21.248C18.0697 20.7458 19.1672 20.4667 20.3391 20.4667C24.3571 20.4667 27.631 23.722 27.631 27.74V35.8132H23.613V27.74C23.613 25.9543 22.1435 24.4847 20.3391 24.4847C18.5534 24.4847 17.0838 25.9543 17.0838 27.74V35.8132H13.0658ZM35.649 15.8907C35.649 17.4532 34.3654 18.7368 32.7843 18.7368C31.2217 18.7368 29.9382 17.4532 29.9382 15.8907C29.9382 14.3095 31.2217 13.026 32.7843 13.026C34.3654 13.026 35.649 14.3095 35.649 15.8907ZM30.7753 35.8132V20.7458H34.7933V35.8132H30.7753Z" fill="white"/>
</svg>
