<svg width="25" height="24" viewBox="0 0 25 24" fill="none" xmlns="http://www.w3.org/2000/svg">
<path fill-rule="evenodd" clip-rule="evenodd" d="M17.6458 4.05118C17.0289 4.00078 16.2366 4 15.1 4H8C7.44772 4 7 3.55229 7 3C7 2.44772 7.44772 2 8 2L15.1428 2C16.2266 1.99999 17.1007 1.99998 17.8086 2.05782C18.5375 2.11737 19.1777 2.24318 19.77 2.54497C20.7108 3.02433 21.4757 3.78924 21.955 4.73005C22.2568 5.32234 22.3826 5.96253 22.4422 6.69138C22.5 7.39926 22.5 8.27342 22.5 9.35722V16.5C22.5 17.0523 22.0523 17.5 21.5 17.5C20.9477 17.5 20.5 17.0523 20.5 16.5V9.4C20.5 8.26339 20.4992 7.47108 20.4488 6.85424C20.3994 6.24907 20.3072 5.90138 20.173 5.63803C19.8854 5.07354 19.4265 4.6146 18.862 4.32698C18.5986 4.19279 18.2509 4.10062 17.6458 4.05118Z" fill="white"/>
<path fill-rule="evenodd" clip-rule="evenodd" d="M6.66146 5.5H14.8385C15.3657 5.49998 15.8205 5.49997 16.195 5.53057C16.5904 5.56287 16.9836 5.63419 17.362 5.82698C17.9265 6.1146 18.3854 6.57354 18.673 7.13803C18.8658 7.51641 18.9371 7.90963 18.9694 8.30497C19 8.67955 19 9.13432 19 9.66148V17.8385C19 18.3657 19 18.8204 18.9694 19.195C18.9371 19.5904 18.8658 19.9836 18.673 20.362C18.3854 20.9265 17.9265 21.3854 17.362 21.673C16.9836 21.8658 16.5904 21.9371 16.195 21.9694C15.8205 22 15.3657 22 14.8385 22H6.66148C6.13432 22 5.67955 22 5.30497 21.9694C4.90963 21.9371 4.51641 21.8658 4.13803 21.673C3.57354 21.3854 3.1146 20.9265 2.82698 20.362C2.63419 19.9836 2.56287 19.5904 2.53057 19.195C2.49997 18.8205 2.49998 18.3657 2.5 17.8385V9.66146C2.49998 9.13431 2.49997 8.67954 2.53057 8.30497C2.56287 7.90963 2.63419 7.51641 2.82698 7.13803C3.1146 6.57354 3.57354 6.1146 4.13803 5.82698C4.51641 5.63419 4.90963 5.56287 5.30497 5.53057C5.67955 5.49997 6.13431 5.49998 6.66146 5.5Z" fill="white"/>
</svg>
