<svg width="25" height="24" viewBox="0 0 25 24" fill="none" xmlns="http://www.w3.org/2000/svg">
<g id="Media / Icon / Outline / home-05">
<path id="Icon" d="M13.4823 2.76473C13.131 2.49148 12.9553 2.35485 12.7613 2.30233C12.5902 2.25599 12.4098 2.25599 12.2387 2.30233C12.0447 2.35485 11.869 2.49148 11.5177 2.76473L4.73539 8.03986C4.28202 8.39248 4.05534 8.56879 3.89203 8.78959C3.74737 8.98518 3.6396 9.20552 3.57403 9.43978C3.5 9.70425 3.5 9.99143 3.5 10.5658V17.8007C3.5 18.9208 3.5 19.4809 3.71799 19.9087C3.90973 20.285 4.21569 20.591 4.59202 20.7827C5.01984 21.0007 5.5799 21.0007 6.7 21.0007H8.7C8.98003 21.0007 9.12004 21.0007 9.227 20.9462C9.32108 20.8983 9.39757 20.8218 9.4455 20.7277C9.5 20.6208 9.5 20.4807 9.5 20.2007V13.6007C9.5 13.0407 9.5 12.7606 9.60899 12.5467C9.70487 12.3586 9.85785 12.2056 10.046 12.1097C10.2599 12.0007 10.5399 12.0007 11.1 12.0007H13.9C14.4601 12.0007 14.7401 12.0007 14.954 12.1097C15.1422 12.2056 15.2951 12.3586 15.391 12.5467C15.5 12.7606 15.5 13.0407 15.5 13.6007V20.2007C15.5 20.4807 15.5 20.6208 15.5545 20.7277C15.6024 20.8218 15.6789 20.8983 15.773 20.9462C15.88 21.0007 16.02 21.0007 16.3 21.0007H18.3C19.4201 21.0007 19.9802 21.0007 20.408 20.7827C20.7843 20.591 21.0903 20.285 21.282 19.9087C21.5 19.4809 21.5 18.9208 21.5 17.8007V10.5658C21.5 9.99143 21.5 9.70425 21.426 9.43978C21.3604 9.20552 21.2526 8.98518 21.108 8.78959C20.9447 8.56879 20.718 8.39248 20.2646 8.03986L13.4823 2.76473Z" stroke="#323B50" stroke-width="2" stroke-linecap="round" stroke-linejoin="round"/>
</g>
</svg>
