<svg width="24" height="24" viewBox="0 0 24 24" fill="none" xmlns="http://www.w3.org/2000/svg">
<path fill-rule="evenodd" clip-rule="evenodd" d="M11.4774 1.33709C11.8197 1.24441 12.1805 1.24441 12.5228 1.33709C12.9202 1.44468 13.2547 1.70733 13.5218 1.91697C15.8251 3.72535 18.1429 5.51544 20.4564 7.31085C20.833 7.60313 21.1648 7.86064 21.4121 8.19494C21.6291 8.48832 21.7907 8.81883 21.8891 9.17023C22.0012 9.57065 22.0007 9.99066 22.0002 10.4674C21.9976 12.9247 22.0001 15.382 22.0001 17.8393C22.0002 18.3664 22.0002 18.8212 21.9696 19.1957C21.9373 19.5911 21.866 19.9843 21.6732 20.3627C21.3855 20.9272 20.9266 21.3861 20.3621 21.6737C19.9837 21.8665 19.5905 21.9378 19.1952 21.9701C18.3937 22.0356 17.5807 22.0003 16.777 22.0007C16.6579 22.0008 16.5156 22.0008 16.3903 21.9906C16.2451 21.9787 16.0371 21.9483 15.8192 21.8372C15.5369 21.6934 15.3074 21.4639 15.1636 21.1817C15.0526 20.9638 15.0221 20.7558 15.0103 20.6105C15 20.4852 15.0001 20.343 15.0001 20.2238L15.008 14.6276C15.0088 14.0668 15.0092 13.7865 14.9003 13.5722C14.8045 13.3838 14.6515 13.2306 14.4632 13.1345C14.2492 13.0253 13.9688 13.0253 13.408 13.0253H10.6082C10.0488 13.0253 9.76916 13.0253 9.55541 13.1341C9.36738 13.2299 9.21443 13.3826 9.11846 13.5705C9.00936 13.7841 9.00896 14.0637 9.00816 14.6231L9.00014 20.2239C9.00019 20.343 9.00025 20.4852 8.99001 20.6105C8.97814 20.7558 8.9477 20.9638 8.83665 21.1817C8.69284 21.4639 8.46337 21.6934 8.18113 21.8372C7.96318 21.9483 7.75519 21.9787 7.60997 21.9906C7.48465 22.0008 7.3424 22.0008 7.22329 22.0007C6.4196 22.0003 5.60663 22.0356 4.80511 21.9701C4.40977 21.9378 4.01655 21.8665 3.63817 21.6737C3.07368 21.3861 2.61474 20.9272 2.32712 20.3627C2.13433 19.9843 2.06301 19.5911 2.03071 19.1957C2.00011 18.8212 2.00012 18.3664 2.00014 17.8393C2.00014 15.382 2.00273 12.9247 2.00007 10.4674C1.99955 9.99066 1.9991 9.57065 2.11118 9.17023C2.20954 8.81883 2.37119 8.48832 2.58818 8.19494C2.83544 7.86064 3.16725 7.60314 3.54388 7.31085C5.85732 5.51552 8.17524 3.72531 10.4785 1.91697C10.7455 1.70734 11.0801 1.44468 11.4774 1.33709Z" fill="white"/>
</svg>
