<svg width="12" height="12" viewBox="0 0 12 12" fill="none" xmlns="http://www.w3.org/2000/svg">
<g clip-path="url(#clip0_1785_112604)">
<path d="M7.41065 2.0155L0.808079 8.61855C0.774861 8.65186 0.750876 8.69393 0.739454 8.73914L0.00762279 11.6766C-0.0142684 11.765 0.0117155 11.859 0.0762469 11.9235C0.125074 11.9724 0.191604 11.9994 0.259657 11.9994C0.280501 11.9994 0.301821 11.9968 0.32257 11.9916L3.25999 11.2597C3.30577 11.2483 3.34736 11.2244 3.38058 11.1911L9.98372 4.58857L7.41065 2.0155Z" fill="#323B50"/>
<path d="M11.6193 1.11523L10.8843 0.38026C10.3931 -0.110959 9.53694 -0.110483 9.04629 0.38026L8.146 1.28056L10.719 3.85353L11.6193 2.95323C11.8646 2.70796 11.9998 2.38149 11.9998 2.03428C11.9998 1.68707 11.8646 1.3606 11.6193 1.11523Z" fill="#323B50"/>
</g>
<defs>
<clipPath id="clip0_1785_112604">
<rect width="12" height="12" fill="white"/>
</clipPath>
</defs>
</svg>
