<svg width="21" height="20" viewBox="0 0 21 20" fill="none" xmlns="http://www.w3.org/2000/svg">
<g opacity="0.12">
<path d="M7.04168 9.16732C7.96215 9.16732 8.70834 8.42113 8.70834 7.50065C8.70834 6.58018 7.96215 5.83398 7.04168 5.83398C6.1212 5.83398 5.37501 6.58018 5.37501 7.50065C5.37501 8.42113 6.1212 9.16732 7.04168 9.16732Z" fill="#323B50"/>
<path d="M10.375 10.834L3.70834 17.5007H17.0417L10.375 10.834Z" fill="#323B50"/>
<path d="M18.7083 12.5007L15.9643 9.75657C15.6388 9.43114 15.1112 9.43114 14.7858 9.75657L12.0417 12.5007L16.9221 17.3811C17.077 17.3433 17.2149 17.2936 17.3433 17.2282C17.8137 16.9885 18.1962 16.606 18.4359 16.1356C18.7083 15.6008 18.7083 14.9008 18.7083 13.5007V12.5007Z" fill="#323B50"/>
</g>
<path d="M3.93507 17.2733L9.43218 11.7761C9.7622 11.4461 9.9272 11.2811 10.1175 11.2193C10.2848 11.1649 10.4651 11.1649 10.6325 11.2193C10.8228 11.2811 10.9878 11.4461 11.3178 11.7761L16.7783 17.2366M12.0417 12.5L14.4322 10.1095C14.7622 9.77946 14.9272 9.61445 15.1175 9.55263C15.2848 9.49825 15.4651 9.49825 15.6325 9.55263C15.8228 9.61445 15.9878 9.77946 16.3178 10.1095L18.7083 12.5M8.70832 7.5C8.70832 8.42047 7.96213 9.16667 7.04166 9.16667C6.12118 9.16667 5.37499 8.42047 5.37499 7.5C5.37499 6.57953 6.12118 5.83333 7.04166 5.83333C7.96213 5.83333 8.70832 6.57953 8.70832 7.5ZM6.04166 17.5H14.7083C16.1085 17.5 16.8085 17.5 17.3433 17.2275C17.8137 16.9878 18.1962 16.6054 18.4358 16.135C18.7083 15.6002 18.7083 14.9001 18.7083 13.5V6.5C18.7083 5.09987 18.7083 4.3998 18.4358 3.86502C18.1962 3.39462 17.8137 3.01217 17.3433 2.77248C16.8085 2.5 16.1085 2.5 14.7083 2.5H6.04166C4.64153 2.5 3.94146 2.5 3.40668 2.77248C2.93628 3.01217 2.55382 3.39462 2.31414 3.86502C2.04166 4.3998 2.04166 5.09987 2.04166 6.5V13.5C2.04166 14.9001 2.04166 15.6002 2.31414 16.135C2.55382 16.6054 2.93628 16.9878 3.40668 17.2275C3.94146 17.5 4.64153 17.5 6.04166 17.5Z" stroke="#323B50" stroke-width="1.5" stroke-linecap="round" stroke-linejoin="round"/>
</svg>
