<svg width="16" height="14" viewBox="0 0 16 14" fill="none" xmlns="http://www.w3.org/2000/svg">
<path d="M2.84804 12.8186L7.24573 8.42091C7.50974 8.1569 7.64175 8.0249 7.79397 7.97544C7.92786 7.93193 8.0721 7.93193 8.20599 7.97544C8.35821 8.0249 8.49022 8.15691 8.75423 8.42091L13.1226 12.7893M9.33331 9L11.2457 7.08758C11.5097 6.82357 11.6417 6.69156 11.794 6.6421C11.9279 6.5986 12.0721 6.5986 12.206 6.6421C12.3582 6.69156 12.4902 6.82357 12.7542 7.08758L14.6666 9M6.66665 5C6.66665 5.73638 6.06969 6.33333 5.33331 6.33333C4.59693 6.33333 3.99998 5.73638 3.99998 5C3.99998 4.26362 4.59693 3.66667 5.33331 3.66667C6.06969 3.66667 6.66665 4.26362 6.66665 5ZM4.53331 13H11.4666C12.5868 13 13.1468 13 13.5746 12.782C13.951 12.5903 14.2569 12.2843 14.4487 11.908C14.6666 11.4802 14.6666 10.9201 14.6666 9.8V4.2C14.6666 3.0799 14.6666 2.51984 14.4487 2.09202C14.2569 1.71569 13.951 1.40973 13.5746 1.21799C13.1468 1 12.5868 1 11.4666 1H4.53331C3.41321 1 2.85316 1 2.42533 1.21799C2.04901 1.40973 1.74305 1.71569 1.5513 2.09202C1.33331 2.51984 1.33331 3.0799 1.33331 4.2V9.8C1.33331 10.9201 1.33331 11.4802 1.5513 11.908C1.74305 12.2843 2.04901 12.5903 2.42533 12.782C2.85316 13 3.41321 13 4.53331 13Z" stroke="#323B50" stroke-width="1.5" stroke-linecap="round" stroke-linejoin="round"/>
</svg>
