<svg width="22" height="24" viewBox="0 0 22 24" fill="none" xmlns="http://www.w3.org/2000/svg">
<path d="M7.4944 1.00012L7.45941 0.999871C7.33255 0.998618 7.06944 0.99602 6.81988 1.0821C6.60969 1.1546 6.41825 1.27292 6.25941 1.42849C6.07081 1.61321 5.95546 1.84971 5.89985 1.96373L5.88443 1.99513L1.67028 10.4234C1.58696 10.5899 1.49673 10.7703 1.43463 10.9293C1.36951 11.096 1.27511 11.381 1.32509 11.7194C1.3854 12.1275 1.61117 12.4928 1.94927 12.7293C2.22952 12.9253 2.52672 12.9684 2.70493 12.9847C2.87491 13.0002 3.07655 13.0002 3.26277 13.0001L8.15594 13.0001L5.54214 21.7128C5.40953 22.1548 5.59665 22.6302 5.99501 22.8633C6.39336 23.0963 6.89946 23.0265 7.21981 22.6943L19.4386 10.023C19.6218 9.83296 19.8031 9.64503 19.936 9.48021C20.056 9.33128 20.2921 9.02216 20.32 8.59877C20.3513 8.12348 20.155 7.66157 19.7912 7.35421C19.467 7.08041 19.0806 7.03579 18.8901 7.01882C18.6792 7.00003 18.4181 7.00007 18.1541 7.00011L12.443 7.00012L14.1863 2.35124C14.3015 2.04414 14.2587 1.7001 14.0719 1.43052C13.8851 1.16095 13.5779 1.00012 13.25 1.00012H7.4944Z" fill="#007AFF" stroke="#CCE4FF" stroke-width="2" stroke-linecap="round" stroke-linejoin="round"/>
</svg>
