<svg width="37" height="36" viewBox="0 0 37 36" fill="none" xmlns="http://www.w3.org/2000/svg">
<path d="M21.8743 3H13.2409C12.9717 3 12.8371 3 12.7183 3.04099C12.6132 3.07724 12.5174 3.1364 12.438 3.21419C12.3482 3.30215 12.288 3.42255 12.1676 3.66334L5.86762 16.2633C5.5801 16.8384 5.43634 17.1259 5.47087 17.3596C5.50102 17.5637 5.61391 17.7464 5.78296 17.8646C5.97656 18 6.29802 18 6.94093 18H16.2493L11.7493 33L30.0389 14.033C30.656 13.3931 30.9645 13.0731 30.9826 12.7993C30.9982 12.5617 30.9001 12.3307 30.7182 12.177C30.5086 12 30.0641 12 29.1751 12H18.4993L21.8743 3Z" stroke="#323B50" stroke-width="2" stroke-linecap="round" stroke-linejoin="round"/>
</svg>
