<svg width="31" height="36" viewBox="0 0 31 36" fill="none" xmlns="http://www.w3.org/2000/svg">
<path d="M10.7416 1.50018L10.6891 1.49981C10.4988 1.49793 10.1042 1.49403 9.72982 1.62315C9.41454 1.7319 9.12737 1.90937 8.88911 2.14274C8.60621 2.41981 8.43319 2.77456 8.34978 2.9456L8.32664 2.9927L2.00542 15.6351C1.88043 15.8849 1.74509 16.1554 1.65194 16.3939C1.55427 16.644 1.41266 17.0716 1.48764 17.579C1.5781 18.1913 1.91675 18.7392 2.42391 19.094C2.84429 19.388 3.29007 19.4525 3.5574 19.477C3.81237 19.5003 4.11483 19.5003 4.39415 19.5002L11.7339 19.5002L7.81321 32.5692C7.61429 33.2322 7.89498 33.9453 8.49251 34.2949C9.09004 34.6445 9.84919 34.5397 10.3297 34.0414L28.6578 15.0345C28.9327 14.7494 29.2047 14.4675 29.4039 14.2203C29.584 13.9969 29.9381 13.5332 29.98 12.8982C30.027 12.1852 29.7326 11.4924 29.1867 11.0313C28.7005 10.6206 28.1209 10.5537 27.8351 10.5282C27.5189 10.5 27.1272 10.5001 26.7312 10.5002L18.1645 10.5002L20.7794 3.52686C20.9522 3.06622 20.8881 2.55015 20.6078 2.14578C20.3276 1.74142 19.8669 1.50018 19.375 1.50018H10.7416Z" fill="#007AFF" stroke="white" stroke-width="2" stroke-linecap="round" stroke-linejoin="round"/>
</svg>
