<svg width="36" height="36" viewBox="0 0 36 36" fill="none" xmlns="http://www.w3.org/2000/svg">
<path d="M8.54107 16.8917V31.775C8.54107 31.901 8.49103 32.0218 8.40196 32.1109C8.31289 32.2 8.19209 32.25 8.06612 32.25H5.37475C4.74492 32.25 4.1409 31.9998 3.69555 31.5544C3.2502 31.109 3 30.5049 3 29.875V18.7917C3 18.1618 3.2502 17.5577 3.69555 17.1123C4.1409 16.6669 4.74492 16.4167 5.37475 16.4167H8.06612C8.19209 16.4167 8.31289 16.4667 8.40196 16.5558C8.49103 16.6449 8.54107 16.7657 8.54107 16.8917ZM26.5891 13.25H20.4148V8.12C20.4159 7.33845 20.2225 6.5689 19.8522 5.88067C19.4818 5.19244 18.9462 4.60715 18.2934 4.1775C17.8809 3.9016 17.3964 3.75295 16.9002 3.75C16.3896 3.74903 15.8911 3.90493 15.472 4.19662C15.0529 4.4883 14.7336 4.90168 14.5571 5.38084L10.9396 16.3438C10.9238 16.3919 10.9158 16.4421 10.9158 16.4927V31.775C10.9158 31.901 10.9659 32.0218 11.0549 32.1109C11.144 32.2 11.2648 32.25 11.3908 32.25H23.4228C26.605 32.25 27.2857 30.9358 27.9348 29.0042L31.1012 19.5042C32.1302 16.4325 31.3513 13.25 26.5891 13.25Z" fill="white"/>
</svg>
