<svg width="120" height="120" viewBox="0 0 120 120" fill="none" xmlns="http://www.w3.org/2000/svg">
<path fill-rule="evenodd" clip-rule="evenodd" d="M43.7521 11.9046C46.0646 5.56651 52.0923 1.3999 58.8 1.3999H59.0083L59.2162 1.41229C65.6029 1.79269 70.5309 5.4024 73.6635 9.62843C76.7619 13.8083 78.5343 19.1061 78.52 24.227V35.7679H93.8951L93.9502 35.7688C103.909 35.9255 111.81 38.9807 115.856 46.1736C119.523 52.6934 118.377 60.3111 116.879 66.7007C114.961 73.103 112.353 80.1052 110.729 86.1826L110.432 86.9272C108.419 93.3111 106.562 98.0377 105.727 100.84L105.535 101.439L105.346 102.002C104.18 105.463 102.512 110.086 98.61 113.514C94.4844 117.138 89.0374 118.504 82.392 118.504H38.88C36.5424 118.504 34.4216 117.588 32.856 116.096C31.2904 117.588 29.1696 118.504 26.832 118.504H26.8203H26.8085C26.0341 118.501 25.1886 118.522 24.1838 118.548H24.1738C23.2084 118.573 22.1115 118.6 20.9964 118.599C18.8085 118.597 16.1354 118.489 13.5226 117.873C10.8821 117.251 7.80412 115.993 5.35894 113.316C2.83089 110.548 1.65914 107.013 1.52429 103.157L1.52002 103.034V62.8319C1.52002 54.2139 8.49403 47.2399 17.112 47.2399H26.7981C28.5977 47.2179 30.2405 47.7363 31.605 48.6283C31.875 47.7884 32.1824 46.8428 32.5177 45.8187C33.7515 42.0495 35.4005 37.102 37.0471 32.1759C37.539 30.7039 38.0307 29.2341 38.5115 27.797C39.6433 24.4137 40.7146 21.2116 41.5862 18.5896C42.2075 16.7206 42.721 15.1655 43.0797 14.0596C43.223 13.6178 43.3363 13.2639 43.4197 12.9982L43.4428 12.7522L43.7521 11.9046ZM43.5476 12.5805C43.5459 12.5866 43.5419 12.6003 43.5353 12.6228C43.5743 12.4652 43.5914 12.4255 43.5476 12.5805ZM56.9825 16.5183C56.9422 16.6561 56.8986 16.7999 56.856 16.9379C56.7406 17.3116 56.5832 17.8042 56.3968 18.3789C56.0214 19.5363 55.4943 21.132 54.8713 23.006C53.9955 25.6407 52.9176 28.8628 51.7838 32.252C51.3038 33.6867 50.8139 35.1513 50.325 36.614C48.6775 41.5428 47.0415 46.4518 45.8229 50.1743C45.2121 52.04 44.7156 53.5792 44.3773 54.6643C44.2873 54.9528 44.2125 55.1965 44.152 55.3973V104.504H82.392C87.2667 104.504 88.8036 103.494 89.37 102.996C90.1215 102.336 90.8194 101.178 91.9061 98.0377C92.7739 93.2733 95.1012 87.4008 97.2172 82.0613C97.2974 81.8589 97.3773 81.6574 97.4568 81.4566C99.9055 75.2732 102.29 69.2106 103.573 63.7396C104.919 57.9942 104.589 54.6989 103.654 53.037C103.099 52.0504 101.311 49.8964 93.7829 49.7679H64.52V24.2042L64.5201 24.1924C64.5269 22.1651 63.7676 19.7881 62.4165 17.9654C61.176 16.2919 59.8254 15.5533 58.6134 15.4081C57.8904 15.4721 57.2812 15.9044 56.9825 16.5183ZM21.56 61.2399H17.112C16.226 61.2399 15.52 61.9459 15.52 62.8319V102.77C15.5514 103.421 15.6522 103.746 15.7095 103.877C15.8048 103.94 16.0901 104.095 16.7354 104.247C17.7616 104.489 19.1521 104.597 21.0119 104.599C21.1939 104.599 21.3764 104.599 21.56 104.597V61.2399ZM15.7221 103.904C15.7433 103.931 15.7501 103.949 15.7501 103.949C15.7488 103.951 15.7382 103.937 15.7221 103.904Z" fill="white"/>
<path d="M28.512 55.9922V109.824C28.512 110.784 27.744 111.552 26.784 111.552H17.04C12.288 111.552 8.448 107.712 8.448 102.96V62.8802C8.448 58.1282 12.288 54.2882 17.04 54.2882H26.784C27.744 54.2642 28.512 55.0322 28.512 55.9922ZM93.768 42.8162H71.448V24.2642C71.448 18.5282 68.568 13.1522 63.768 10.0082C62.28 9.00017 60.528 8.47217 58.728 8.47217C54.936 8.47217 51.552 10.8242 50.256 14.3762L37.176 54.0002C37.128 54.1682 37.08 54.3602 37.08 54.5282V109.8C37.08 110.76 37.848 111.528 38.808 111.528H82.32C93.84 111.528 96.288 106.776 98.64 99.7922L110.088 65.4242C113.808 54.3362 111 42.8162 93.768 42.8162Z" fill="#007AFF"/>
</svg>
