<svg width="19" height="20" viewBox="0 0 19 20" fill="none" xmlns="http://www.w3.org/2000/svg">
<path d="M5.33341 18.3334V9.16675M1.16675 10.8334V16.6667C1.16675 17.5872 1.91294 18.3334 2.83341 18.3334H14.022C15.2559 18.3334 16.3053 17.4331 16.4929 16.2136L17.3903 10.3802C17.6233 8.86583 16.4516 7.50008 14.9194 7.50008H12.0001C11.5398 7.50008 11.1667 7.12699 11.1667 6.66675V3.72161C11.1667 2.58674 10.2468 1.66675 9.11188 1.66675C8.8412 1.66675 8.5959 1.82616 8.48596 2.07352L5.55336 8.67186C5.41961 8.9728 5.12118 9.16675 4.79185 9.16675H2.83341C1.91294 9.16675 1.16675 9.91294 1.16675 10.8334Z" stroke="white" stroke-width="2" stroke-linecap="round" stroke-linejoin="round"/>
</svg>
