<svg width="24" height="24" viewBox="0 0 24 24" fill="none" xmlns="http://www.w3.org/2000/svg">
<path d="M22.0001 12.2344C22.0001 11.5411 21.9439 10.8441 21.824 10.1621H12.2047V14.0893H17.7132C17.4846 15.3559 16.7501 16.4763 15.6747 17.1883V19.7365H18.9611C20.8909 17.9603 22.0001 15.3371 22.0001 12.2344Z" fill="#4285F4"/>
<path d="M12.2045 22.1992C14.955 22.1992 17.2746 21.2961 18.9647 19.7372L15.6783 17.189C14.7639 17.8111 13.5835 18.1633 12.2083 18.1633C9.54767 18.1633 7.2918 16.3683 6.48238 13.9551H3.09106V16.5819C4.82232 20.0257 8.34854 22.1992 12.2045 22.1992Z" fill="#34A853"/>
<path d="M6.47876 13.9554C6.05156 12.6888 6.05156 11.3173 6.47876 10.0507V7.42383H3.09119C1.64473 10.3055 1.64473 13.7006 3.09119 16.5822L6.47876 13.9554Z" fill="#FBBC04"/>
<path d="M12.2045 5.83927C13.6585 5.81679 15.0637 6.36389 16.1167 7.36817L19.0284 4.45651C17.1847 2.72526 14.7377 1.77344 12.2045 1.80342C8.34854 1.80342 4.82232 3.97686 3.09106 7.42438L6.47863 10.0512C7.2843 7.63423 9.54393 5.83927 12.2045 5.83927Z" fill="#EA4335"/>
</svg>
