<svg width="20" height="22" viewBox="0 0 20 22" fill="none" xmlns="http://www.w3.org/2000/svg">
<path d="M4 16.0008C4 16.3521 4 16.5278 4.01567 16.6805C4.14575 17.9482 5.0626 18.9955 6.30206 19.292C6.45134 19.3277 6.6255 19.3509 6.97368 19.3973L13.5656 20.2762C15.442 20.5264 16.3803 20.6515 17.1084 20.362C17.7478 20.1078 18.2803 19.6415 18.6168 19.0414C19 18.3579 19 17.4114 19 15.5183V6.48329C19 4.59025 19 3.64373 18.6168 2.9602C18.2803 2.36009 17.7478 1.89386 17.1084 1.63965C16.3803 1.35011 15.442 1.47521 13.5656 1.7254L6.97368 2.60432C6.62546 2.65075 6.45135 2.67397 6.30206 2.70968C5.0626 3.00617 4.14575 4.05339 4.01567 5.32116C4 5.47386 4 5.64951 4 6.00082M10 7.00082L14 11.0008M14 11.0008L10 15.0008M14 11.0008H1" stroke="#323B50" stroke-width="2" stroke-linecap="round" stroke-linejoin="round"/>
</svg>
