<svg width="37" height="36" viewBox="0 0 37 36" fill="none" xmlns="http://www.w3.org/2000/svg">
<rect x="0.5" width="36" height="36" rx="9.12102" fill="#007AFF"/>
<path d="M9.96108 27.8947V12.0117H12.9864V16.9278C13.7521 16.5357 14.5691 16.3396 15.4375 16.3396C16.4459 16.3396 17.3657 16.587 18.1967 17.0819C19.0277 17.5768 19.6907 18.2397 20.1856 19.0708C20.6805 19.8925 20.9279 20.8075 20.9279 21.816V27.8947H17.9026V21.816C17.9026 21.3678 17.7905 20.9569 17.5664 20.5834C17.3517 20.2099 17.0575 19.9158 16.684 19.7011C16.3105 19.477 15.895 19.3649 15.4375 19.3649C14.9893 19.3649 14.5784 19.477 14.2049 19.7011C13.8314 19.9158 13.5327 20.2099 13.3086 20.5834C13.0938 20.9569 12.9864 21.3678 12.9864 21.816V27.8947H9.96108ZM26.965 12.8941C26.965 13.4823 26.7549 13.9865 26.3347 14.4067C25.9145 14.8269 25.4056 15.037 24.808 15.037C24.2198 15.037 23.7155 14.8269 23.2953 14.4067C22.8752 13.9865 22.6651 13.4823 22.6651 12.8941C22.6651 12.2965 22.8752 11.7876 23.2953 11.3674C23.7155 10.9472 24.2198 10.7371 24.808 10.7371C25.4056 10.7371 25.9145 10.9472 26.3347 11.3674C26.7549 11.7876 26.965 12.2965 26.965 12.8941ZM23.2953 27.8947V16.5497H26.3207V27.8947H23.2953Z" fill="white"/>
</svg>
