<svg width="21" height="20" viewBox="0 0 21 20" fill="none" xmlns="http://www.w3.org/2000/svg">
<path fill-rule="evenodd" clip-rule="evenodd" d="M0.5 10C0.5 4.47715 4.97715 0 10.5 0C16.0228 0 20.5 4.47715 20.5 10C20.5 15.5228 16.0228 20 10.5 20C9.17168 20 7.9015 19.7405 6.73921 19.2684C6.63423 19.2258 6.57362 19.2013 6.52887 19.1845C6.52358 19.1825 6.51898 19.1808 6.51505 19.1794L6.5103 19.18C6.47339 19.185 6.42309 19.1933 6.32705 19.2093L2.74049 19.8071C2.57985 19.8339 2.40013 19.8639 2.24404 19.8757C2.07386 19.8885 1.80312 19.893 1.517 19.7703C1.1633 19.6186 0.881437 19.3367 0.729729 18.983C0.607009 18.6969 0.611482 18.4261 0.624327 18.256C0.636108 18.0999 0.666118 17.9202 0.69294 17.7596C0.694551 17.7499 0.69615 17.7403 0.697733 17.7308L1.29071 14.173C1.30672 14.0769 1.315 14.0266 1.32 13.9897L1.32063 13.9849C1.3192 13.981 1.31751 13.9764 1.31552 13.9711C1.29872 13.9264 1.27419 13.8658 1.23156 13.7608C0.759521 12.5985 0.5 11.3283 0.5 10Z" fill="#323B50"/>
</svg>
