<svg width="21" height="20" viewBox="0 0 21 20" fill="none" xmlns="http://www.w3.org/2000/svg">
<path fill-rule="evenodd" clip-rule="evenodd" d="M10.125 0.833984C8.28403 0.833984 6.79165 2.32637 6.79165 4.16732V10.0007C6.79165 11.8416 8.28403 13.334 10.125 13.334C11.9659 13.334 13.4583 11.8416 13.4583 10.0007V4.16732C13.4583 2.32637 11.9659 0.833984 10.125 0.833984Z" fill="#323B50"/>
<path d="M5.12498 8.33398C5.12498 7.87375 4.75188 7.50065 4.29165 7.50065C3.83141 7.50065 3.45831 7.87375 3.45831 8.33398V10.0007C3.45831 13.4009 6.00386 16.2065 9.29321 16.6159C9.29217 16.6329 9.29165 16.6501 9.29165 16.6673V17.5006H6.79165C6.33141 17.5006 5.95831 17.8737 5.95831 18.334C5.95831 18.7942 6.33141 19.1673 6.79165 19.1673H13.4583C13.9186 19.1673 14.2916 18.7942 14.2916 18.334C14.2916 17.8737 13.9186 17.5006 13.4583 17.5006H10.9583V16.6673C10.9583 16.6501 10.9578 16.6329 10.9568 16.6159C14.2461 16.2065 16.7916 13.4009 16.7916 10.0007V8.33398C16.7916 7.87375 16.4186 7.50065 15.9583 7.50065C15.4981 7.50065 15.125 7.87375 15.125 8.33398V10.0007C15.125 12.7621 12.8864 15.0006 10.125 15.0006C7.36356 15.0006 5.12498 12.7621 5.12498 10.0007V8.33398Z" fill="#323B50"/>
</svg>
