<svg width="24" height="24" viewBox="0 0 24 24" fill="none" xmlns="http://www.w3.org/2000/svg">
<circle cx="12" cy="12" r="12" fill="#34C759"/>
<path d="M9.40671 14.5886C9.92451 15.1064 10.4711 15.5738 11.0464 15.9909C11.6217 16.4081 12.1971 16.7389 12.7724 16.9834C13.3477 17.2279 13.8925 17.3502 14.4067 17.3502C14.7555 17.3502 15.0809 17.2872 15.383 17.1614C15.685 17.0355 15.9583 16.8378 16.2028 16.5681C16.3467 16.4099 16.4599 16.2391 16.5426 16.0557C16.6253 15.8759 16.6667 15.6943 16.6667 15.5109C16.6667 15.3743 16.6397 15.2448 16.5858 15.1225C16.5318 14.9967 16.4402 14.8888 16.3107 14.7989L14.6548 13.6231C14.529 13.5368 14.4121 13.4721 14.3042 13.4289C14.1964 13.3858 14.0939 13.3642 13.9968 13.3642C13.8745 13.3642 13.7559 13.3983 13.6408 13.4667C13.5257 13.5314 13.4071 13.6249 13.2848 13.7471L12.9019 14.1247C12.8479 14.1822 12.7796 14.211 12.6969 14.211C12.6537 14.211 12.6124 14.2038 12.5728 14.1894C12.5369 14.175 12.5063 14.1625 12.4811 14.1517C12.3121 14.0618 12.0964 13.9072 11.8339 13.6878C11.5714 13.4649 11.3071 13.2204 11.041 12.9543C10.7785 12.6882 10.5358 12.4239 10.3129 12.1614C10.0899 11.8989 9.9353 11.6849 9.849 11.5195C9.83461 11.4908 9.82023 11.4584 9.80585 11.4224C9.79506 11.3829 9.78966 11.3433 9.78966 11.3038C9.78966 11.2247 9.81663 11.1581 9.87057 11.1042L10.2535 10.7105C10.3722 10.5882 10.4657 10.4695 10.534 10.3545C10.6023 10.2394 10.6365 10.1208 10.6365 9.99849C10.6365 9.90141 10.6131 9.79892 10.5664 9.69105C10.5232 9.58318 10.4567 9.46631 10.3668 9.34046L9.20714 7.70615C9.11365 7.5767 9.00218 7.48321 8.87273 7.42568C8.74328 7.36455 8.60664 7.33398 8.4628 7.33398C8.09243 7.33398 7.74544 7.4904 7.42181 7.80324C7.15932 8.05495 6.96694 8.33362 6.84468 8.63927C6.72602 8.94132 6.66669 9.26494 6.66669 9.61014C6.66669 10.1279 6.78715 10.6727 7.02807 11.2444C7.26899 11.8126 7.59621 12.3825 8.00973 12.9543C8.42325 13.526 8.88891 14.0708 9.40671 14.5886Z" fill="white"/>
</svg>
