<svg width="37" height="32" viewBox="0 0 37 32" fill="none" xmlns="http://www.w3.org/2000/svg">
<path d="M5.62013 30.5465L16.6144 19.5523C17.2744 18.8923 17.6044 18.5622 17.985 18.4386C18.3197 18.3298 18.6803 18.3298 19.015 18.4386C19.3956 18.5622 19.7256 18.8923 20.3856 19.5523L31.3065 30.4732M21.8333 21L26.6144 16.219C27.2744 15.5589 27.6044 15.2289 27.985 15.1053C28.3197 14.9965 28.6803 14.9965 29.015 15.1053C29.3956 15.2289 29.7256 15.5589 30.3856 16.2189L35.1666 21M15.1666 11C15.1666 12.8409 13.6743 14.3333 11.8333 14.3333C9.99236 14.3333 8.49998 12.8409 8.49998 11C8.49998 9.15905 9.99236 7.66667 11.8333 7.66667C13.6743 7.66667 15.1666 9.15905 15.1666 11ZM9.83331 31H27.1666C29.9669 31 31.367 31 32.4366 30.455C33.3774 29.9757 34.1423 29.2108 34.6217 28.27C35.1666 27.2004 35.1666 25.8003 35.1666 23V9C35.1666 6.19974 35.1666 4.79961 34.6217 3.73005C34.1423 2.78924 33.3774 2.02433 32.4366 1.54497C31.367 1 29.9669 1 27.1666 1H9.83331C7.03305 1 5.63292 1 4.56336 1.54497C3.62255 2.02433 2.85765 2.78924 2.37828 3.73005C1.83331 4.79961 1.83331 6.19974 1.83331 9V23C1.83331 25.8003 1.83331 27.2004 2.37828 28.27C2.85765 29.2108 3.62255 29.9757 4.56336 30.455C5.63292 31 7.03305 31 9.83331 31Z" stroke="#007AFF" stroke-width="2" stroke-linecap="round" stroke-linejoin="round"/>
</svg>
