<svg width="25" height="24" viewBox="0 0 25 24" fill="none" xmlns="http://www.w3.org/2000/svg">
<path fill-rule="evenodd" clip-rule="evenodd" d="M16.8838 2.41099C16.6281 2.15524 16.3905 1.91761 16.1783 1.7407C15.9562 1.55561 15.6582 1.34549 15.2683 1.26644C14.7517 1.16173 14.2147 1.26514 13.774 1.55421C13.4413 1.77244 13.2427 2.07818 13.1053 2.33251C12.9739 2.57558 12.8416 2.88444 12.6991 3.21687L11.6145 5.74765C11.5902 5.80447 11.5782 5.83217 11.5691 5.85216L11.5685 5.85352L11.5675 5.8546C11.5523 5.87049 11.531 5.89186 11.4873 5.93557L9.92641 7.49645C9.85812 7.56475 9.82438 7.59829 9.79906 7.62192L9.79725 7.6236L9.79486 7.62417C9.76115 7.63213 9.71453 7.6416 9.61982 7.66054L5.91296 8.40191C5.47327 8.48982 5.07788 8.56887 4.76752 8.66106C4.45692 8.75333 4.0557 8.90508 3.75226 9.24705C3.36413 9.68447 3.18689 10.2699 3.2672 10.8491C3.32998 11.302 3.57965 11.6508 3.7869 11.8998C3.99399 12.1487 4.27911 12.4338 4.59619 12.7508L7.46249 15.6171L2.51274 20.5669C2.12222 20.9574 2.12222 21.5906 2.51274 21.9811C2.90327 22.3716 3.53643 22.3716 3.92696 21.9811L8.87671 17.0313L11.7431 19.8977C12.0601 20.2148 12.3452 20.4999 12.5941 20.707C12.8432 20.9143 13.192 21.164 13.6448 21.2267C14.2241 21.307 14.8095 21.1298 15.2469 20.7417C15.5889 20.4382 15.7406 20.037 15.8329 19.7264C15.9251 19.416 16.0041 19.0207 16.092 18.581L16.8334 14.8741C16.8523 14.7794 16.8618 14.7328 16.8698 14.6991L16.8703 14.6967L16.872 14.6949C16.8956 14.6696 16.9292 14.6358 16.9975 14.5675L18.5584 13.0066C18.6021 12.9629 18.6234 12.9416 18.6393 12.9265L18.6404 12.9254L18.6418 12.9248C18.6618 12.9157 18.6895 12.9038 18.7463 12.8794L21.2771 11.7948C21.6095 11.6524 21.9184 11.52 22.1614 11.3887C22.4158 11.2513 22.7215 11.0526 22.9397 10.7199C23.2288 10.2792 23.3322 9.74221 23.2275 9.22566C23.1484 8.83569 22.9383 8.53772 22.7532 8.31568C22.5763 8.10345 22.3387 7.86587 22.0829 7.61016L16.8838 2.41099Z" fill="#323B50"/>
</svg>
