<svg width="37" height="37" viewBox="0 0 37 37" fill="none" xmlns="http://www.w3.org/2000/svg">
<path d="M18.498 0.5C8.55705 0.5 0.498047 8.55887 0.498047 18.5C0.498047 28.4411 8.55705 36.5 18.498 36.5C28.439 36.5 36.498 28.4411 36.498 18.5C36.498 8.55887 28.439 0.5 18.498 0.5ZM24.7193 19.4541L15.7193 25.0791C15.5372 25.1928 15.3301 25.25 15.123 25.25C14.9355 25.25 14.7476 25.2033 14.5776 25.1088C14.22 24.9105 13.998 24.5342 13.998 24.125V12.875C13.998 12.4658 14.22 12.0895 14.5776 11.8912C14.9352 11.6918 15.3724 11.7039 15.7193 11.9209L24.7193 17.5459C25.0481 17.7519 25.248 18.1122 25.248 18.5C25.248 18.8878 25.0481 19.2482 24.7193 19.4541Z" fill="white"/>
</svg>
