<svg width="20" height="20" viewBox="0 0 20 20" fill="none" xmlns="http://www.w3.org/2000/svg">
<path fill-rule="evenodd" clip-rule="evenodd" d="M9.99992 0.833496C4.93731 0.833496 0.833252 4.93755 0.833252 10.0002C0.833252 15.0628 4.93731 19.1668 9.99992 19.1668C15.0625 19.1668 19.1666 15.0628 19.1666 10.0002C19.1666 4.93755 15.0625 0.833496 9.99992 0.833496ZM9.99992 5.8335C10.4602 5.8335 10.8333 6.20659 10.8333 6.66683V9.16683H13.3333C13.7935 9.16683 14.1666 9.53993 14.1666 10.0002C14.1666 10.4604 13.7935 10.8335 13.3333 10.8335H10.8333V13.3335C10.8333 13.7937 10.4602 14.1668 9.99992 14.1668C9.53968 14.1668 9.16658 13.7937 9.16658 13.3335V10.8335H6.66658C6.20635 10.8335 5.83325 10.4604 5.83325 10.0002C5.83325 9.53993 6.20635 9.16683 6.66658 9.16683H9.16658V6.66683C9.16658 6.20659 9.53968 5.8335 9.99992 5.8335Z" fill="white"/>
</svg>
