<svg width="33" height="32" viewBox="0 0 33 32" fill="none" xmlns="http://www.w3.org/2000/svg">
<g id="Media / Icon / Solid / plus-circle">
<path id="Solid" fill-rule="evenodd" clip-rule="evenodd" d="M16.4999 1.33337C8.39974 1.33337 1.83325 7.89986 1.83325 16C1.83325 24.1002 8.39974 30.6667 16.4999 30.6667C24.6001 30.6667 31.1666 24.1002 31.1666 16C31.1666 7.89986 24.6001 1.33337 16.4999 1.33337ZM16.4999 9.33337C17.2363 9.33337 17.8333 9.93033 17.8333 10.6667V14.6667H21.8333C22.5696 14.6667 23.1666 15.2637 23.1666 16C23.1666 16.7364 22.5696 17.3334 21.8333 17.3334H17.8333V21.3334C17.8333 22.0698 17.2363 22.6667 16.4999 22.6667C15.7635 22.6667 15.1666 22.0698 15.1666 21.3334V17.3334H11.1666C10.4302 17.3334 9.83325 16.7364 9.83325 16C9.83325 15.2637 10.4302 14.6667 11.1666 14.6667H15.1666V10.6667C15.1666 9.93033 15.7635 9.33337 16.4999 9.33337Z" fill="#007AFF"/>
</g>
</svg>
