<svg width="25" height="24" viewBox="0 0 25 24" fill="none" xmlns="http://www.w3.org/2000/svg">
<path fill-rule="evenodd" clip-rule="evenodd" d="M12 2C6.75329 2 2.5 6.25329 2.5 11.5C2.5 16.7467 6.75329 21 12 21C14.2631 21 16.3415 20.2086 17.9733 18.8875L20.7929 21.7071C21.1834 22.0976 21.8166 22.0976 22.2071 21.7071C22.5976 21.3166 22.5976 20.6834 22.2071 20.2929L19.3875 17.4733C20.7086 15.8415 21.5 13.7631 21.5 11.5C21.5 6.25329 17.2467 2 12 2ZM4.5 11.5C4.5 7.35786 7.85786 4 12 4C16.1421 4 19.5 7.35786 19.5 11.5C19.5 15.6421 16.1421 19 12 19C7.85786 19 4.5 15.6421 4.5 11.5Z" fill="#323B50"/>
<circle cx="11.9918" cy="11.5438" r="5.84315" fill="#323B50"/>
</svg>
