<svg width="22" height="22" viewBox="0 0 22 22" fill="none" xmlns="http://www.w3.org/2000/svg">
<path d="M19.8606 11.5817C20.0419 11.2151 20.0419 10.7849 19.8606 10.4183C19.701 10.0955 19.4208 9.9262 19.2757 9.84454C19.1195 9.75663 18.9193 9.66656 18.7197 9.57676L4.03384 2.96818C3.82959 2.87623 3.62596 2.78456 3.45419 2.72506C3.29649 2.67043 2.97898 2.57062 2.62743 2.66844C2.23017 2.77897 1.90795 3.06979 1.75739 3.45367C1.62415 3.79338 1.69099 4.11943 1.72921 4.28189C1.77085 4.45886 1.84124 4.67082 1.91185 4.88343L3.33327 9.16596C3.44772 9.51077 3.50494 9.68318 3.61135 9.81066C3.70532 9.92323 3.82607 10.0104 3.96251 10.0641C4.11702 10.1249 4.29868 10.1249 4.66199 10.1249H11.0002C11.4835 10.1249 11.8752 10.5167 11.8752 10.9999C11.8752 11.4832 11.4835 11.8749 11.0002 11.8749H4.67853C4.31614 11.8749 4.13494 11.8749 3.98071 11.9355C3.84451 11.989 3.72391 12.0758 3.62993 12.188C3.52352 12.315 3.46599 12.4869 3.35095 12.8305L1.91809 17.1106C1.84672 17.3237 1.77563 17.5359 1.73346 17.7131C1.69479 17.8755 1.62684 18.2022 1.75971 18.5427C1.90975 18.9273 2.23201 19.2189 2.62964 19.3299C2.98177 19.4282 3.3 19.328 3.45775 19.2734C3.62987 19.2137 3.834 19.1218 4.03892 19.0296L18.7196 12.4233C18.9193 12.3335 19.1195 12.2434 19.2758 12.1555C19.4208 12.0738 19.701 11.9045 19.8606 11.5817Z" fill="white"/>
</svg>
