<svg width="28" height="26" viewBox="0 0 28 26" fill="none" xmlns="http://www.w3.org/2000/svg">
<path fill-rule="evenodd" clip-rule="evenodd" d="M11.783 1.18703C12.1738 0.707523 12.7645 0.435839 13.3829 0.451178C13.925 0.464625 14.3345 0.73632 14.5406 0.883066C14.7604 1.0395 15.0106 1.25402 15.2587 1.46676C15.2709 1.47719 15.283 1.48762 15.2952 1.49804L26.6156 11.2013C26.7549 11.3205 26.9167 11.4591 27.047 11.5918C27.1945 11.7421 27.4008 11.9808 27.5245 12.3249C27.6815 12.762 27.6815 13.2401 27.5245 13.6772C27.4008 14.0214 27.1945 14.26 27.047 14.4103C26.9167 14.5431 26.7549 14.6816 26.6156 14.8009L15.2587 24.5354C15.0106 24.7482 14.7604 24.9627 14.5406 25.1191C14.3345 25.2658 13.925 25.5375 13.3829 25.551C12.7645 25.5663 12.1738 25.2946 11.783 24.8151C11.4404 24.3948 11.3802 23.9071 11.3574 23.655C11.3332 23.3863 11.3332 23.0568 11.3333 22.7299L11.3333 18.5963C10.077 18.8134 8.8533 19.2034 7.69768 19.7578C5.89592 20.6221 4.30227 21.8657 3.02588 23.4033C2.66703 23.8356 2.0757 23.9966 1.54725 23.8058C1.0188 23.6151 0.666626 23.1135 0.666626 22.5517V21.7357C0.668442 18.2414 1.95668 14.8694 4.28553 12.2643C6.16876 10.1577 8.62583 8.67135 11.3333 7.97244V3.32025C11.3333 3.30425 11.3333 3.28824 11.3333 3.27222C11.3332 2.94539 11.3332 2.61581 11.3574 2.34713C11.3802 2.09509 11.4404 1.60741 11.783 1.18703Z" fill="white"/>
</svg>
