<svg width="16" height="16" viewBox="0 0 16 16" fill="none" xmlns="http://www.w3.org/2000/svg">
<path fill-rule="evenodd" clip-rule="evenodd" d="M6.89152 2.09382C7.08692 1.85407 7.38227 1.71822 7.69147 1.72589C7.96254 1.73262 8.16726 1.86847 8.27035 1.94184C8.38024 2.02005 8.50533 2.12731 8.62939 2.23368C8.63547 2.2389 8.64155 2.24411 8.64763 2.24932L14.3079 7.10094C14.3775 7.16058 14.4584 7.22986 14.5235 7.29623C14.5973 7.37136 14.7005 7.4907 14.7623 7.66277C14.8408 7.88132 14.8408 8.12037 14.7623 8.33892C14.7005 8.51099 14.5973 8.63033 14.5235 8.70546C14.4584 8.77184 14.3775 8.84111 14.3079 8.90075L8.62937 13.768C8.50532 13.8744 8.38024 13.9816 8.27035 14.0599C8.16726 14.1332 7.96254 14.2691 7.69147 14.2758C7.38227 14.2835 7.08692 14.1476 6.89152 13.9079C6.72021 13.6977 6.69013 13.4538 6.67875 13.3278C6.66662 13.1935 6.66665 13.0287 6.66667 12.8653L6.66668 10.7984C6.03854 10.907 5.42668 11.102 4.84887 11.3792C3.94799 11.8114 3.15117 12.4332 2.51297 13.202C2.33354 13.4181 2.03788 13.4986 1.77366 13.4032C1.50943 13.3078 1.33334 13.0571 1.33334 12.7762V12.3682C1.33425 10.621 1.97837 8.93499 3.1428 7.63244C4.08441 6.57913 5.31294 5.83598 6.66668 5.48653V3.16043C6.66668 3.15243 6.66668 3.14443 6.66667 3.13642C6.66665 2.973 6.66662 2.80821 6.67875 2.67387C6.69013 2.54785 6.72021 2.30401 6.89152 2.09382Z" fill="#818EB0"/>
</svg>
