<svg width="12" height="10" viewBox="0 0 12 10" fill="none" xmlns="http://www.w3.org/2000/svg">
<g id="Solid">
<path fill-rule="evenodd" clip-rule="evenodd" d="M1.25 7.75004C1.25 7.4739 1.47386 7.25004 1.75 7.25004H4.5C4.77614 7.25004 5 7.4739 5 7.75004C5 8.02618 4.77614 8.25004 4.5 8.25004H1.75C1.47386 8.25004 1.25 8.02618 1.25 7.75004Z" fill="white"/>
<path fill-rule="evenodd" clip-rule="evenodd" d="M0.5 5.00004C0.5 4.7239 0.723858 4.50004 1 4.50004H3.25C3.52614 4.50004 3.75 4.7239 3.75 5.00004C3.75 5.27618 3.52614 5.50004 3.25 5.50004H1C0.723858 5.50004 0.5 5.27618 0.5 5.00004Z" fill="white"/>
<path fill-rule="evenodd" clip-rule="evenodd" d="M1.5 2.25004C1.5 1.9739 1.72386 1.75004 2 1.75004H4.5C4.77614 1.75004 5 1.9739 5 2.25004C5 2.52618 4.77614 2.75004 4.5 2.75004H2C1.72386 2.75004 1.5 2.52618 1.5 2.25004Z" fill="white"/>
<path fill-rule="evenodd" clip-rule="evenodd" d="M8.68379 0.035045C8.89736 0.119457 9.02596 0.338494 8.99561 0.566124L8.57109 3.75004H10.4727C10.4785 3.75004 10.4842 3.75004 10.49 3.75004C10.6003 3.75002 10.7147 3.74999 10.8092 3.75863C10.9022 3.76713 11.0713 3.78965 11.2224 3.90631C11.3987 4.04237 11.5054 4.24972 11.5137 4.47225C11.5208 4.66306 11.4408 4.81376 11.3937 4.89434C11.3458 4.97625 11.2793 5.06932 11.2151 5.15912C11.2118 5.16381 11.2084 5.16849 11.2051 5.17316L7.90687 9.79066C7.77339 9.97753 7.52978 10.0495 7.31621 9.96504C7.10264 9.88063 6.97404 9.66159 7.00439 9.43396L7.42891 6.25004H5.52728C5.52154 6.25004 5.51579 6.25004 5.51003 6.25004C5.39966 6.25007 5.28526 6.25009 5.19077 6.24145C5.09782 6.23296 4.92871 6.21044 4.77755 6.09377C4.60127 5.95771 4.49456 5.75036 4.48631 5.52783C4.47924 5.33702 4.5592 5.18632 4.60631 5.10575C4.65421 5.02383 4.72072 4.93076 4.78489 4.84097C4.78824 4.83628 4.79158 4.8316 4.79492 4.82693L8.09313 0.209423C8.22661 0.0225535 8.47022 -0.0493666 8.68379 0.035045Z" fill="white"/>
</g>
</svg>
