<svg width="49" height="48" viewBox="0 0 49 48" fill="none" xmlns="http://www.w3.org/2000/svg">
<g clip-path="url(#clip0_1701_72240)">
<path d="M15.6759 40.691C18.2795 45.1993 23.1311 48 28.3373 48C36.3994 48 42.9584 41.441 42.9584 33.3788V21.931C42.9584 19.8775 41.2878 18.2069 39.2342 18.2069C38.4165 18.2069 37.6597 18.4718 37.0447 18.9203C36.6264 17.3213 35.1694 16.1379 33.4411 16.1379C32.5764 16.1379 31.7796 16.4342 31.1469 16.9305C30.6248 15.5038 29.2534 14.4828 27.648 14.4828C26.8831 14.4828 26.1712 14.7146 25.5791 15.1118V7.86206C25.5791 5.80856 23.9085 4.13794 21.8549 4.13794C19.8014 4.13794 18.1308 5.80856 18.1308 7.86206V27.606C18.1308 27.8599 17.982 28.093 17.7519 28.2002C17.4418 28.3443 17.0791 28.2298 16.9081 27.9337L14.4249 23.6326C12.9418 21.0639 9.64557 20.1806 7.07673 21.6637C6.59814 21.94 6.25576 22.3862 6.1127 22.9201C5.96973 23.454 6.04323 24.0115 6.3196 24.4902L15.6759 40.691ZM7.7117 23.3484C7.72829 23.2867 7.77535 23.1717 7.90454 23.0972C8.47839 22.7659 9.11514 22.5967 9.76042 22.5967C10.0839 22.5967 10.4095 22.6392 10.7303 22.7252C11.6911 22.9826 12.4942 23.5988 12.9915 24.4603L15.4748 28.7614C16.0777 29.8057 17.3569 30.2094 18.4501 29.7011C19.2617 29.3236 19.7861 28.5013 19.7861 27.6062V7.86206C19.7861 6.72122 20.7143 5.7931 21.8551 5.7931C22.9959 5.7931 23.9241 6.72122 23.9241 7.86206V23.1724C23.9241 23.6294 24.2946 24 24.7517 24C25.2088 24 25.5793 23.6295 25.5793 23.1724V18.2069C25.5793 17.0661 26.5074 16.1379 27.6483 16.1379C28.7891 16.1379 29.7173 17.0661 29.7173 18.2069V23.1724C29.7173 23.6294 30.0878 24 30.5449 24C31.0019 24 31.3725 23.6295 31.3725 23.1724V19.8621C31.3725 18.7212 32.3006 17.7931 33.4415 17.7931C34.5823 17.7931 35.5104 18.7212 35.5104 19.8621V23.5862C35.5104 24.0432 35.8809 24.4138 36.3381 24.4138C36.7951 24.4138 37.1657 24.0433 37.1657 23.5862V21.931C37.1657 20.7902 38.0938 19.8621 39.2347 19.8621C40.3755 19.8621 41.3036 20.7902 41.3036 21.931V33.3788C41.3036 40.5283 35.4871 46.3448 28.3375 46.3448C23.7207 46.3448 19.4184 43.8612 17.1095 39.8633L7.75304 23.6625C7.67842 23.5333 7.6951 23.4102 7.7117 23.3484Z" fill="white"/>
<path d="M27.4931 12.1499C27.6253 12.2281 27.7704 12.2652 27.9136 12.2652C28.1965 12.2652 28.4723 12.12 28.6268 11.8587C29.3401 10.6524 29.7171 9.27037 29.7171 7.86206C29.7171 3.52687 26.1902 0 21.855 0C17.5198 0 13.993 3.52687 13.993 7.86206C13.993 9.26503 14.3672 10.6424 15.0753 11.8453C15.3072 12.2392 15.8146 12.3706 16.2083 12.1387C16.6022 11.9068 16.7335 11.3995 16.5016 11.0057C15.9432 10.057 15.648 8.97 15.648 7.86206C15.648 4.43953 18.4324 1.65516 21.8549 1.65516C25.2774 1.65516 28.0618 4.43953 28.0618 7.86206C28.0618 8.97412 27.7645 10.0649 27.202 11.0163C26.9694 11.4098 27.0998 11.9172 27.4931 12.1499Z" fill="white"/>
<path d="M36.3378 14.8966C36.7948 14.8966 37.1654 14.5261 37.1654 14.069V2.82552L39.6837 5.34374C39.8454 5.50537 40.0571 5.58618 40.2689 5.58618C40.4807 5.58618 40.6925 5.50537 40.8541 5.34374C41.1774 5.02058 41.1774 4.49662 40.8541 4.17337L36.923 0.242428C36.5998 -0.080728 36.0759 -0.080728 35.7526 0.242428L31.8216 4.17346C31.4983 4.49662 31.4983 5.02058 31.8216 5.34383C32.1447 5.66699 32.6687 5.66699 32.9919 5.34383L35.5103 2.82562V14.0691C35.5102 14.526 35.8807 14.8966 36.3378 14.8966Z" fill="white"/>
</g>
<defs>
<clipPath id="clip0_1701_72240">
<rect width="48" height="48" fill="white" transform="translate(0.5)"/>
</clipPath>
</defs>
</svg>
