<svg width="49" height="48" viewBox="0 0 49 48" fill="none" xmlns="http://www.w3.org/2000/svg">
<g clip-path="url(#clip0_1701_72139)">
<path d="M15.6758 40.691C18.2795 45.1993 23.1311 48 28.3373 48C36.3994 48 42.9586 41.441 42.9586 33.3788V21.931C42.9586 19.8775 41.2879 18.2069 39.2344 18.2069C38.4168 18.2069 37.6598 18.4718 37.0449 18.9203C36.6267 17.3213 35.1696 16.1379 33.4413 16.1379C32.5767 16.1379 31.7798 16.4342 31.1471 16.9305C30.6249 15.5038 29.2536 14.4828 27.6483 14.4828C26.8833 14.4828 26.1714 14.7147 25.5793 15.1118V7.86206C25.5793 5.80856 23.9087 4.13794 21.8552 4.13794C19.8017 4.13794 18.131 5.80856 18.131 7.86206V27.606C18.131 27.8599 17.9823 28.093 17.7521 28.2001C17.4419 28.3444 17.0793 28.2297 16.9083 27.9337L14.425 23.6326C13.7066 22.3883 12.5467 21.4982 11.1588 21.1263C9.77079 20.7544 8.32132 20.9453 7.07707 21.6637C6.59847 21.9399 6.256 22.3862 6.11294 22.9201C5.96997 23.454 6.04347 24.0116 6.31985 24.4902L15.6758 40.691ZM7.71175 23.3484C7.72825 23.2867 7.77532 23.1717 7.9045 23.0972C8.47835 22.7659 9.1151 22.5967 9.76047 22.5967C10.0838 22.5967 10.4095 22.6392 10.7303 22.7252C11.6912 22.9826 12.4941 23.5988 12.9916 24.4603L15.4748 28.7614C16.0776 29.8056 17.3569 30.2093 18.4502 29.7011C19.2618 29.3236 19.7862 28.5013 19.7862 27.6062V7.86206C19.7862 6.72122 20.7143 5.7931 21.8552 5.7931C22.996 5.7931 23.9241 6.72122 23.9241 7.86206V23.1724C23.9241 23.6294 24.2946 24 24.7518 24C25.2089 24 25.5794 23.6295 25.5794 23.1724V18.2069C25.5794 17.0661 26.5075 16.1379 27.6483 16.1379C28.7892 16.1379 29.7173 17.0661 29.7173 18.2069V23.1724C29.7173 23.6294 30.0878 24 30.5449 24C31.002 24 31.3726 23.6295 31.3726 23.1724V19.8621C31.3726 18.7212 32.3007 17.7931 33.4415 17.7931C34.5824 17.7931 35.5105 18.7212 35.5105 19.8621V23.5862C35.5105 24.0432 35.881 24.4138 36.3381 24.4138C36.7952 24.4138 37.1658 24.0433 37.1658 23.5862V21.931C37.1658 20.7902 38.0939 19.8621 39.2347 19.8621C40.3756 19.8621 41.3037 20.7902 41.3037 21.931V33.3788C41.3037 40.5283 35.4872 46.3448 28.3376 46.3448C23.7208 46.3448 19.4184 43.8612 17.1095 39.8632L7.753 23.6624C7.67847 23.5333 7.69516 23.4102 7.71175 23.3484Z" fill="white"/>
<path d="M16.2084 12.1387C16.6024 11.9068 16.7336 11.3995 16.5018 11.0056C15.9433 10.057 15.6482 8.97 15.6482 7.86206C15.6482 4.43953 18.4326 1.65516 21.8551 1.65516C25.2776 1.65516 28.062 4.43953 28.062 7.86206C28.062 8.97412 27.7647 10.0649 27.2021 11.0163C26.9694 11.4098 27.0999 11.9173 27.4932 12.1499C27.6254 12.2281 27.7705 12.2652 27.9137 12.2652C28.1967 12.2652 28.4724 12.12 28.6269 11.8587C29.3401 10.6524 29.7172 9.27037 29.7172 7.86206C29.7172 3.52687 26.1902 0 21.8551 0C17.52 0 13.993 3.52687 13.993 7.86206C13.993 9.26503 14.3673 10.6424 15.0755 11.8453C15.3072 12.2391 15.8143 12.3707 16.2084 12.1387Z" fill="white"/>
<path d="M32.1999 8.68969H38.4779L35.9596 11.208C35.6364 11.5312 35.6364 12.0551 35.9596 12.3784C36.1212 12.54 36.333 12.6208 36.5448 12.6208C36.7565 12.6208 36.9683 12.54 37.1299 12.3784L41.061 8.44735C41.3841 8.12419 41.3841 7.60023 41.061 7.27698L37.1299 3.34594C36.8067 3.02279 36.2828 3.02279 35.9595 3.34594C35.6363 3.6691 35.6363 4.19307 35.9595 4.51632L38.4778 7.03463H32.1998C31.7428 7.03463 31.3722 7.40513 31.3722 7.86226C31.3723 8.3191 31.7428 8.68969 32.1999 8.68969Z" fill="white"/>
</g>
<defs>
<clipPath id="clip0_1701_72139">
<rect width="48" height="48" fill="white" transform="translate(0.5)"/>
</clipPath>
</defs>
</svg>
