<svg width="49" height="48" viewBox="0 0 49 48" fill="none" xmlns="http://www.w3.org/2000/svg">
<g clip-path="url(#clip0_1701_72206)">
<path d="M8.89433 21.6638C8.41573 21.94 8.07327 22.3863 7.9302 22.9202C7.78723 23.4541 7.86073 24.0117 8.13711 24.4903L17.4932 40.6911C20.097 45.1994 24.9485 48 30.1547 48C38.2168 48 44.7759 41.441 44.7759 33.3788V21.931C44.7759 19.8775 43.1053 18.2069 41.0518 18.2069C40.2341 18.2069 39.4772 18.4718 38.8623 18.9203C38.444 17.3213 36.987 16.1379 35.2587 16.1379C34.394 16.1379 33.5972 16.4342 32.9645 16.9305C32.4423 15.5038 31.071 14.4828 29.4656 14.4828C28.7007 14.4828 27.9888 14.7147 27.3966 15.1118V7.86206C27.3966 5.80856 25.726 4.13794 23.6725 4.13794C21.619 4.13794 19.9484 5.80856 19.9484 7.86206V27.606C19.9484 27.8599 19.7997 28.093 19.5695 28.2001C19.2593 28.3444 18.8967 28.2297 18.7256 27.9337L16.2424 23.6326C15.524 22.3883 14.3641 21.4982 12.9762 21.1263C11.588 20.7544 10.1386 20.9453 8.89433 21.6638ZM14.8089 24.4602L17.2922 28.7613C17.8951 29.8055 19.1742 30.2093 20.2675 29.701C21.0791 29.3235 21.6035 28.5012 21.6035 27.6061V7.86206C21.6035 6.72122 22.5317 5.7931 23.6725 5.7931C24.8133 5.7931 25.7415 6.72122 25.7415 7.86206V23.1724C25.7415 23.6294 26.112 24 26.5691 24C27.0261 24 27.3967 23.6295 27.3967 23.1724V18.2069C27.3967 17.0661 28.3249 16.1379 29.4657 16.1379C30.6065 16.1379 31.5347 17.0661 31.5347 18.2069V23.1724C31.5347 23.6294 31.9052 24 32.3623 24C32.8193 24 33.1899 23.6295 33.1899 23.1724V19.8621C33.1899 18.7212 34.118 17.7931 35.2589 17.7931C36.3997 17.7931 37.3279 18.7212 37.3279 19.8621V23.5862C37.3279 24.0432 37.6984 24.4138 38.1555 24.4138C38.6126 24.4138 38.9831 24.0433 38.9831 23.5862V21.931C38.9831 20.7902 39.9112 19.8621 41.0521 19.8621C42.1929 19.8621 43.121 20.7902 43.121 21.931V33.3788C43.121 40.5283 37.3045 46.3448 30.155 46.3448C25.5382 46.3448 21.2359 43.8612 18.927 39.8633L9.57045 23.6624C9.49592 23.5333 9.51252 23.4102 9.52911 23.3484C9.54561 23.2867 9.59267 23.1717 9.72186 23.0972C10.2957 22.7659 10.9325 22.5967 11.5778 22.5967C11.9012 22.5967 12.2269 22.6392 12.5477 22.7252C13.5086 22.9825 14.3116 23.5988 14.8089 24.4602Z" fill="white"/>
<path d="M18.0258 12.1387C18.4197 11.9068 18.551 11.3995 18.3191 11.0056C17.7607 10.057 17.4656 8.97 17.4656 7.86206C17.4656 4.43953 20.2499 1.65516 23.6725 1.65516C27.095 1.65516 29.8794 4.43953 29.8794 7.86206C29.8794 8.97412 29.5821 10.0649 29.0195 11.0163C28.7868 11.4097 28.9172 11.9173 29.3106 12.1499C29.4428 12.2281 29.5879 12.2652 29.7311 12.2652C30.0141 12.2652 30.2898 12.12 30.4442 11.8587C31.1575 10.6524 31.5345 9.27038 31.5345 7.86206C31.5344 3.52688 28.0076 0 23.6724 0C19.3372 0 15.8103 3.52688 15.8103 7.86206C15.8103 9.26503 16.1846 10.6424 16.8927 11.8453C17.1246 12.2391 17.6317 12.3706 18.0258 12.1387Z" fill="white"/>
<path d="M8.39764 12.3783C8.55927 12.5399 8.77105 12.6207 8.98283 12.6207C9.19461 12.6207 9.40639 12.5399 9.56802 12.3783C9.89117 12.0551 9.89117 11.5312 9.56802 11.2079L7.0497 8.6897H13.3276C13.7846 8.6897 14.1552 8.3192 14.1552 7.86207C14.1552 7.40495 13.7847 7.03445 13.3276 7.03445H7.0497L9.56802 4.51614C9.89117 4.19298 9.89117 3.66901 9.56802 3.34576C9.24477 3.0226 8.72089 3.0226 8.39755 3.34576L4.46661 7.27689C4.14345 7.60004 4.14345 8.12401 4.46661 8.44726L8.39764 12.3783Z" fill="white"/>
</g>
<defs>
<clipPath id="clip0_1701_72206">
<rect width="48" height="48" fill="white" transform="translate(0.5)"/>
</clipPath>
</defs>
</svg>
