<svg width="37" height="36" viewBox="0 0 37 36" fill="none" xmlns="http://www.w3.org/2000/svg">
<path opacity="0.12" d="M28.7 3H26V19.5H28.7C30.3802 19.5 31.2202 19.5 31.862 19.173C32.4265 18.8854 32.8854 18.4265 33.173 17.862C33.5 17.2202 33.5 16.3802 33.5 14.7V7.8C33.5 6.11984 33.5 5.27976 33.173 4.63803C32.8854 4.07354 32.4265 3.6146 31.862 3.32698C31.2202 3 30.3802 3 28.7 3Z" fill="#323B50"/>
<path d="M26.0001 3V19.5M33.5001 14.7V7.8C33.5001 6.11984 33.5001 5.27976 33.1731 4.63803C32.8855 4.07354 32.4265 3.6146 31.8621 3.32698C31.2203 3 30.3802 3 28.7001 3H12.6771C10.4849 3 9.38876 3 8.50345 3.40115C7.72318 3.75471 7.06003 4.32363 6.59194 5.04107C6.06083 5.85509 5.89416 6.93846 5.56082 9.10519L4.7762 14.2052C4.33655 17.063 4.11672 18.4919 4.54078 19.6037C4.91299 20.5795 5.61305 21.3955 6.52096 21.9118C7.55538 22.5 9.00108 22.5 11.8925 22.5H13.1001C13.9402 22.5 14.3602 22.5 14.6811 22.6635C14.9633 22.8073 15.1928 23.0368 15.3366 23.319C15.5001 23.6399 15.5001 24.0599 15.5001 24.9V29.3012C15.5001 31.344 17.1561 33 19.1988 33C19.6861 33 20.1276 32.7131 20.3255 32.2678L25.3666 20.9253C25.5959 20.4094 25.7106 20.1514 25.8918 19.9623C26.052 19.7951 26.2487 19.6673 26.4665 19.5888C26.7129 19.5 26.9952 19.5 27.5598 19.5H28.7001C30.3802 19.5 31.2203 19.5 31.8621 19.173C32.4265 18.8854 32.8855 18.4265 33.1731 17.862C33.5001 17.2202 33.5001 16.3802 33.5001 14.7Z" stroke="#323B50" stroke-width="2" stroke-linecap="round" stroke-linejoin="round"/>
</svg>
