<svg width="37" height="36" viewBox="0 0 37 36" fill="none" xmlns="http://www.w3.org/2000/svg">
<path opacity="0.12" d="M3.5 19.5V30C3.5 31.6569 4.84315 33 6.5 33H11V16.5H6.5C4.84315 16.5 3.5 17.8431 3.5 19.5Z" fill="#323B50"/>
<path d="M11 33V16.5M3.5 19.5V30C3.5 31.6569 4.84315 33 6.5 33H26.6394C28.8604 33 30.7493 31.3795 31.087 29.1843L32.7024 18.6843C33.1218 15.9583 31.0127 13.5 28.2547 13.5H23C22.1716 13.5 21.5 12.8284 21.5 12V6.69876C21.5 4.65599 19.844 3 17.8012 3C17.314 3 16.8725 3.28694 16.6746 3.73218L11.3959 15.6092C11.1552 16.1509 10.618 16.5 10.0252 16.5H6.5C4.84315 16.5 3.5 17.8431 3.5 19.5Z" stroke="#323B50" stroke-width="2" stroke-linecap="round" stroke-linejoin="round"/>
</svg>
