<svg width="36" height="36" viewBox="0 0 36 36" fill="none" xmlns="http://www.w3.org/2000/svg">
<path fill-rule="evenodd" clip-rule="evenodd" d="M18 1.5C8.8873 1.5 1.5 8.8873 1.5 18C1.5 27.1127 8.8873 34.5 18 34.5C27.1127 34.5 34.5 27.1127 34.5 18C34.5 8.8873 27.1127 1.5 18 1.5ZM25.8107 14.5607C26.3964 13.9749 26.3964 13.0251 25.8107 12.4393C25.2249 11.8536 24.2751 11.8536 23.6893 12.4393L15.75 20.3787L12.3107 16.9393C11.7249 16.3536 10.7751 16.3536 10.1893 16.9393C9.60355 17.5251 9.60355 18.4749 10.1893 19.0607L14.6893 23.5607C15.2751 24.1464 16.2249 24.1464 16.8107 23.5607L25.8107 14.5607Z" fill="#22C55E"/>
</svg>
