<svg width="36" height="36" viewBox="0 0 36 36" fill="none" xmlns="http://www.w3.org/2000/svg">
<path fill-rule="evenodd" clip-rule="evenodd" d="M18 1.5C8.8873 1.5 1.5 8.8873 1.5 18C1.5 27.1127 8.8873 34.5 18 34.5C27.1127 34.5 34.5 27.1127 34.5 18C34.5 8.8873 27.1127 1.5 18 1.5ZM18 10.5C17.1716 10.5 16.5 11.1716 16.5 12C16.5 12.8284 17.1716 13.5 18 13.5H18.015C18.8434 13.5 19.515 12.8284 19.515 12C19.515 11.1716 18.8434 10.5 18.015 10.5H18ZM19.5 18C19.5 17.1716 18.8284 16.5 18 16.5C17.1716 16.5 16.5 17.1716 16.5 18V24C16.5 24.8284 17.1716 25.5 18 25.5C18.8284 25.5 19.5 24.8284 19.5 24V18Z" fill="#F59E0B"/>
</svg>
