<svg width="32" height="33" viewBox="0 0 32 33" fill="none" xmlns="http://www.w3.org/2000/svg">
<path fill-rule="evenodd" clip-rule="evenodd" d="M16.0007 1.83301C7.90047 1.83301 1.33398 8.3995 1.33398 16.4997C1.33398 24.5998 7.90047 31.1663 16.0007 31.1663C24.1008 31.1663 30.6673 24.5998 30.6673 16.4997C30.6673 8.3995 24.1008 1.83301 16.0007 1.83301ZM9.72451 15.5569L15.0578 10.2235C15.5785 9.70283 16.4228 9.70283 16.9435 10.2235L22.2768 15.5569C22.7975 16.0776 22.7975 16.9218 22.2768 17.4425C21.7561 17.9632 20.9119 17.9632 20.3912 17.4425L17.334 14.3853V21.833C17.334 22.5694 16.737 23.1663 16.0007 23.1663C15.2643 23.1663 14.6673 22.5694 14.6673 21.833V14.3853L11.6101 17.4425C11.0894 17.9632 10.2452 17.9632 9.72451 17.4425C9.20381 16.9218 9.20381 16.0776 9.72451 15.5569Z" fill="#007AFF"/>
</svg>
