<svg width="19" height="20" viewBox="0 0 19 20" fill="none" xmlns="http://www.w3.org/2000/svg">
<path fill-rule="evenodd" clip-rule="evenodd" d="M0.917996 16.3031C2.89096 13.692 5.99873 12 9.49985 12C13.001 12 16.1087 13.692 18.0817 16.3031C18.0906 16.3149 18.0996 16.3268 18.1086 16.3386C18.2782 16.563 18.4601 16.8035 18.5901 17.0356C18.7474 17.3165 18.864 17.6414 18.8568 18.0366C18.851 18.3542 18.7548 18.6516 18.6379 18.8864C18.521 19.1212 18.3418 19.3772 18.0918 19.5734C17.7585 19.835 17.3956 19.9276 17.0732 19.9662C16.7904 20.0001 16.4552 20.0001 16.1182 20C16.103 20 16.0878 20 16.0726 20H2.92708C2.9119 20 2.89671 20 2.88152 20C2.54452 20.0001 2.20934 20.0001 1.92649 19.9662C1.60411 19.9276 1.2412 19.835 0.907875 19.5734C0.65793 19.3772 0.478703 19.1212 0.361827 18.8864C0.244951 18.6516 0.148706 18.3542 0.142897 18.0366C0.13567 17.6414 0.252278 17.3165 0.409613 17.0356C0.539599 16.8035 0.721493 16.563 0.891131 16.3386C0.900124 16.3268 0.909082 16.3149 0.917996 16.3031Z" fill="white"/>
<path fill-rule="evenodd" clip-rule="evenodd" d="M3.99985 5.5C3.99985 2.46243 6.46229 0 9.49985 0C12.5374 0 14.9999 2.46243 14.9999 5.5C14.9999 8.53757 12.5374 11 9.49985 11C6.46229 11 3.99985 8.53757 3.99985 5.5Z" fill="white"/>
</svg>
